<svg width="20" height="20" viewBox="0 0 20 20" fill="none" xmlns="http://www.w3.org/2000/svg">
<path d="M9.7669 3.125C8.43887 3.125 7.14066 3.52821 6.03644 4.28365C4.93222 5.03908 4.07159 6.11281 3.56337 7.36905C3.05516 8.62529 2.92218 10.0076 3.18127 11.3412C3.44036 12.6749 4.07986 13.8999 5.01892 14.8614C5.95799 15.8228 7.15442 16.4776 8.45694 16.7429C9.75945 17.0082 11.1095 16.872 12.3365 16.3517C13.5634 15.8313 14.6121 14.9501 15.3499 13.8195C16.0877 12.689 16.4815 11.3597 16.4815 10C16.4815 8.17664 15.7741 6.42795 14.5149 5.13864C13.2556 3.84933 11.5477 3.125 9.7669 3.125Z" stroke="black" stroke-miterlimit="10"/>
<path d="M7.63037 7.90194C7.63037 7.90194 7.66242 7.21835 8.37699 6.62968C8.80086 6.28007 9.30903 6.1789 9.76685 6.17187C10.1838 6.1664 10.5562 6.2371 10.779 6.34569C11.1605 6.53163 11.9033 6.98554 11.9033 7.95077C11.9033 8.9664 11.2548 9.42772 10.5158 9.93515C9.77677 10.4426 9.57609 10.9933 9.57609 11.5625" stroke="black" stroke-width="0.875" stroke-miterlimit="10" stroke-linecap="round"/>
<path d="M9.53793 14.375C9.95934 14.375 10.301 14.0252 10.301 13.5938C10.301 13.1623 9.95934 12.8125 9.53793 12.8125C9.11652 12.8125 8.7749 13.1623 8.7749 13.5938C8.7749 14.0252 9.11652 14.375 9.53793 14.375Z" fill="black"/>
</svg>
