<svg width="22" height="20" viewBox="0 0 22 20" fill="none" xmlns="http://www.w3.org/2000/svg">
<path d="M12.69 4.65H12.9506L12.8197 4.42467C12.075 3.1423 10.8935 2.1709 9.49133 1.68817L9.12949 1.5636L9.3103 1.90087C9.75719 2.7345 10.1003 3.61971 10.3321 4.53675L10.3607 4.65H10.4775H12.69ZM7.62337 1.44467L7.5 1.26631L7.37663 1.44467C6.74546 2.35722 6.25099 3.36888 5.92385 4.45681L5.86576 4.65H6.0675H8.9325H9.13424L9.07615 4.45681C8.74901 3.36888 8.25454 2.35722 7.62337 1.44467ZM1.54948 9.03638L1.57788 9.15H1.695H4.23H4.39928L4.37891 8.98195C4.31924 8.48965 4.275 8.00138 4.275 7.5C4.275 6.99862 4.31924 6.51035 4.37891 6.01805L4.39928 5.85H4.23H1.695H1.57788L1.54948 5.96362C1.42709 6.45316 1.35 6.96802 1.35 7.5C1.35 8.03198 1.42709 8.54684 1.54948 9.03638ZM2.31 10.35H2.05003L2.18014 10.5751C2.92265 11.8596 4.10514 12.8318 5.50896 13.3119L5.87182 13.436L5.68946 13.0987C5.24568 12.2777 4.90499 11.3893 4.66781 10.4628L4.63894 10.35H4.5225H2.31ZM4.5225 4.65H4.63931L4.66793 4.53675C4.89966 3.61971 5.24281 2.7345 5.6897 1.90087L5.86998 1.56459L5.50896 1.68807C4.10514 2.16823 2.92265 3.14044 2.18014 4.42493L2.05003 4.65H2.31H4.5225ZM7.37663 13.5553L7.5 13.7337L7.62337 13.5553C8.25454 12.6428 8.74901 11.6311 9.07615 10.5432L9.13424 10.35H8.9325H6.0675H5.86576L5.92385 10.5432C6.25099 11.6311 6.74546 12.6428 7.37663 13.5553ZM9.255 9.15H9.38593L9.40362 9.02027C9.47147 8.52272 9.525 8.01998 9.525 7.5C9.525 6.98011 9.4715 6.46992 9.40358 5.97943L9.38566 5.85H9.255H5.745H5.61434L5.59642 5.97943C5.5285 6.46992 5.475 6.98011 5.475 7.5C5.475 8.01998 5.52853 8.52272 5.59638 9.02027L5.61407 9.15H5.745H9.255ZM9.31054 13.0987L9.12764 13.437L9.49133 13.3118C10.8935 12.8291 12.075 11.8577 12.8197 10.5753L12.9506 10.35H12.69H10.4775H10.3611L10.3322 10.4628C10.095 11.3893 9.75432 12.2777 9.31054 13.0987ZM10.6211 8.98195L10.6007 9.15H10.77H13.305H13.4221L13.4505 9.03638C13.5729 8.54684 13.65 8.03198 13.65 7.5C13.65 6.96802 13.5729 6.45316 13.4505 5.96362L13.4221 5.85H13.305H10.77H10.6007L10.6211 6.01805C10.6808 6.51035 10.725 6.99862 10.725 7.5C10.725 8.00138 10.6808 8.48965 10.6211 8.98195ZM0.15 7.5C0.15 3.44265 3.43554 0.15 7.4925 0.15C11.5573 0.15 14.85 3.44294 14.85 7.5C14.85 11.5571 11.5573 14.85 7.4925 14.85C3.43554 14.85 0.15 11.5574 0.15 7.5Z" fill="black" stroke="white" stroke-width="0.3"/>
<rect x="16" y="9" width="6" height="5" fill="white"/>
<path d="M14.6833 9V8.65H14.3333H8H7.65V9V15.4407V15.7907H8H11.3167V19V19.35H11.6667H18H18.35V19V12.5593V12.2093H18H14.6833V9ZM10.7476 13.6755L10.8364 13.4178H11.3167V14.4127H9.01667V10.028H13.3167V12.2093H12.5274L11.908 10.4114L11.8267 10.1754H11.5771H10.7564H10.5068L10.4254 10.4114L9.37936 13.4474L9.21948 13.9114H9.71027H10.4167H10.6662L10.7476 13.6755ZM16.9833 13.5873V17.972H12.6833V13.5873H16.9833Z" fill="black" stroke="white" stroke-width="0.7"/>
<path d="M13.8665 16.1767C13.9373 16.2791 14.0153 16.3773 14.1 16.4708C13.8315 16.6012 13.5266 16.6664 13.1852 16.6667V17.3333C13.744 17.3333 14.2433 17.1998 14.6667 16.9412C15.09 17.1998 15.5893 17.3333 16.1481 17.3333V16.6667C15.8075 16.6667 15.5025 16.6013 15.2333 16.4707C15.318 16.3772 15.396 16.279 15.4669 16.1767C15.6803 15.8643 15.8373 15.5234 15.932 15.1667H16.3333V14.5H15.037V14H14.2963V14.5H13V15.1667H13.4013C13.496 15.5234 13.653 15.8643 13.8665 16.1767ZM15.165 15.1667C15.0884 15.3974 14.9787 15.6181 14.8387 15.8233C14.7863 15.899 14.7289 15.9717 14.6667 16.041C14.609 15.9768 14.5554 15.9097 14.5063 15.8399C14.3605 15.6302 14.2468 15.4037 14.1682 15.1667H15.165Z" fill="black"/>
</svg>
