<svg width="14" height="16" viewBox="0 0 14 16" fill="none" xmlns="http://www.w3.org/2000/svg">
<path fill-rule="evenodd" clip-rule="evenodd" d="M4.23676 1.55228C3.30686 1.80824 2.38299 2.08664 1.46593 2.38725C1.38293 2.41348 1.30885 2.46315 1.2522 2.53055C1.19554 2.59795 1.1586 2.68036 1.14563 2.76829C0.603664 6.82546 1.85435 9.78635 3.34603 11.7363C4.0944 12.715 4.90481 13.4396 5.57998 13.9154C5.91858 14.1527 6.21651 14.3256 6.45139 14.4359C6.56934 14.4911 6.66492 14.5286 6.73813 14.5504C6.77041 14.5611 6.80337 14.5694 6.83677 14.5754C6.84388 14.5744 6.8754 14.5702 6.9354 14.5515C7.00861 14.5286 7.10419 14.4911 7.22214 14.4359C7.45601 14.3256 7.75597 14.1527 8.09355 13.9154C8.94018 13.3072 9.69316 12.5727 10.3275 11.7363C11.8192 9.78635 13.0699 6.82546 12.5279 2.76829C12.5149 2.68036 12.478 2.59795 12.4213 2.53055C12.3647 2.46315 12.2906 2.41348 12.2076 2.38725C11.5711 2.17903 10.4973 1.83963 9.43677 1.55228C8.35284 1.25973 7.35534 1.0411 6.83677 1.0411C6.31819 1.0411 5.3217 1.25973 4.23676 1.55228ZM3.97645 0.546578C5.037 0.259234 6.16261 0 6.83677 0C7.5099 0 8.63654 0.259234 9.69708 0.546578C10.643 0.806619 11.5828 1.08953 12.5157 1.39508C13.0526 1.56998 13.4573 2.04368 13.5356 2.62774C14.1182 6.99724 12.7669 10.2351 11.1288 12.3777C10.4307 13.2972 9.60193 14.1043 8.67009 14.7722C8.34608 15.0046 8.00356 15.2086 7.64615 15.3823C7.37161 15.5114 7.07877 15.6165 6.83677 15.6165C6.59476 15.6165 6.30192 15.5114 6.02738 15.3823C5.66989 15.2088 5.32736 15.0047 5.00344 14.7722C4.07197 14.1042 3.24355 13.2971 2.54579 12.3777C0.905659 10.2351 -0.444676 6.99724 0.137961 2.62774C0.176916 2.34463 0.293379 2.07861 0.473868 1.86046C0.654358 1.64232 0.891494 1.48096 1.15783 1.39508C2.09071 1.08954 3.03051 0.806626 3.97645 0.546578Z" fill="black"/>
<path d="M8.36198 6.24671C8.36198 6.66089 8.20129 7.0581 7.91525 7.35097C7.62922 7.64383 7.24127 7.80836 6.83675 7.80836C6.43224 7.80836 6.04429 7.64383 5.75825 7.35097C5.47222 7.0581 5.31152 6.66089 5.31152 6.24671C5.31152 5.83253 5.47222 5.43532 5.75825 5.14246C6.04429 4.84959 6.43224 4.68506 6.83675 4.68506C7.24127 4.68506 7.62922 4.84959 7.91525 5.14246C8.20129 5.43532 8.36198 5.83253 8.36198 6.24671Z" fill="black"/>
<path d="M6.23806 7.84356C6.25801 7.7222 6.31932 7.61201 6.41109 7.53253C6.50286 7.45306 6.61916 7.40944 6.73935 7.40942H6.89798C7.01756 7.40956 7.13326 7.45284 7.22476 7.53167C7.31625 7.6105 7.37769 7.71983 7.39825 7.84044L7.75109 9.92264C7.76369 9.99741 7.76017 10.0741 7.74078 10.1473C7.72139 10.2206 7.6866 10.2886 7.63885 10.3466C7.59109 10.4046 7.53153 10.4512 7.46432 10.4832C7.39712 10.5152 7.3239 10.5317 7.2498 10.5317H6.40075C6.32695 10.5317 6.25405 10.5152 6.18709 10.4834C6.12014 10.4516 6.06075 10.4053 6.01305 10.3476C5.96535 10.2899 5.93048 10.2223 5.91087 10.1495C5.89125 10.0767 5.88736 10.0003 5.89946 9.92577L6.23806 7.84356Z" fill="black"/>
</svg>
