<svg width="17" height="16" viewBox="0 0 17 16" fill="none" xmlns="http://www.w3.org/2000/svg">
<path d="M12.391 15.7988C12.1752 15.7986 11.9643 15.7325 11.7854 15.6088L8.14243 13.1088C8.12448 13.0961 8.10319 13.0893 8.08139 13.0893C8.05958 13.0893 8.03829 13.0961 8.02034 13.1088L4.37734 15.6088C4.1944 15.7339 3.97864 15.799 3.7587 15.7956C3.53876 15.7921 3.32505 15.7202 3.14595 15.5895C2.96684 15.4587 2.83083 15.2753 2.75595 15.0635C2.68108 14.8517 2.6709 14.6217 2.72676 14.4038L3.92319 10.0838C3.92884 10.0621 3.92816 10.0392 3.92121 10.0178C3.91427 9.9965 3.90137 9.97773 3.88412 9.96383L0.436451 7.18883C0.254954 7.05039 0.120324 6.85726 0.0514376 6.63653C-0.0174489 6.4158 -0.0171373 6.17852 0.0523289 5.95798C0.121795 5.73744 0.256932 5.54469 0.438792 5.40675C0.620652 5.26881 0.840114 5.19261 1.06641 5.18883L5.46145 5.01883C5.48306 5.0173 5.50378 5.00941 5.52111 4.9961C5.53843 4.98279 5.55164 4.96464 5.55912 4.94383L7.07297 0.728826C7.14927 0.515146 7.28787 0.330635 7.46998 0.200274C7.6521 0.0699132 7.86894 0 8.09115 0C8.31336 0 8.5302 0.0699132 8.71232 0.200274C8.89444 0.330635 9.03303 0.515146 9.10934 0.728826L10.6232 4.94383C10.6307 4.96464 10.6439 4.98279 10.6612 4.9961C10.6785 5.00941 10.6992 5.0173 10.7209 5.01883L15.1159 5.18883C15.3422 5.19261 15.5617 5.26881 15.7435 5.40675C15.9254 5.54469 16.0605 5.73744 16.13 5.95798C16.1994 6.17852 16.1998 6.4158 16.1309 6.63653C16.062 6.85726 15.9273 7.05039 15.7459 7.18883L12.2982 9.96383C12.2804 9.97728 12.2671 9.99603 12.2601 10.0175C12.2531 10.039 12.2528 10.0621 12.2591 10.0838L13.4555 14.4038C13.4975 14.5695 13.5017 14.7429 13.4677 14.9105C13.4337 15.0781 13.3625 15.2355 13.2596 15.3704C13.1566 15.5053 13.0247 15.6141 12.8741 15.6884C12.7235 15.7627 12.5582 15.8005 12.391 15.7988ZM8.08383 12.0888C8.30008 12.0956 8.50935 12.1688 8.68448 12.2988L12.3275 14.7988C12.3459 14.8132 12.3685 14.8211 12.3916 14.8212C12.4148 14.8214 12.4375 14.8139 12.4561 14.7999C12.4748 14.7858 12.4886 14.7659 12.4953 14.7432C12.502 14.7205 12.5014 14.6962 12.4935 14.6738L11.2971 10.3538C11.2382 10.1419 11.2426 9.91681 11.3096 9.70744C11.3766 9.49806 11.5032 9.31398 11.6731 9.17883L15.1208 6.40383C15.1396 6.3903 15.1537 6.37096 15.1609 6.34863C15.1682 6.32631 15.1683 6.30219 15.1612 6.27981C15.1541 6.25743 15.1402 6.23798 15.1215 6.2243C15.1028 6.21062 15.0803 6.20345 15.0573 6.20383L10.6623 6.03383C10.4471 6.02524 10.2392 5.95122 10.0653 5.8212C9.89133 5.69119 9.75914 5.51107 9.68558 5.30383L8.17173 1.08883C8.1649 1.06645 8.15127 1.04688 8.13282 1.03299C8.11438 1.0191 8.09208 1.01161 8.06918 1.01161C8.04628 1.01161 8.02398 1.0191 8.00553 1.03299C7.98708 1.04688 7.97345 1.06645 7.96663 1.08883L6.46743 5.29883C6.39386 5.50607 6.26168 5.68619 6.08773 5.8162C5.91378 5.94622 5.70595 6.02024 5.49075 6.02883L1.09571 6.19883C1.07273 6.19845 1.05023 6.20562 1.03153 6.2193C1.01283 6.23298 0.998904 6.25243 0.9918 6.27481C0.984697 6.29719 0.984789 6.32131 0.992065 6.34363C0.999341 6.36596 1.01342 6.3853 1.03222 6.39883L4.48477 9.17883C4.6542 9.31441 4.78041 9.49853 4.84737 9.70776C4.91433 9.91698 4.919 10.1419 4.8608 10.3538L3.66925 14.6738C3.66214 14.6955 3.6621 14.7189 3.66915 14.7405C3.6762 14.7622 3.68995 14.7809 3.70832 14.7938C3.72601 14.8093 3.74852 14.8178 3.7718 14.8178C3.79508 14.8178 3.81759 14.8093 3.83528 14.7938L7.47829 12.2938C7.65633 12.1729 7.8653 12.1085 8.07894 12.1088L8.08383 12.0888Z" fill="black"/>
</svg>
