<svg width="21" height="20" viewBox="0 0 21 20" fill="none" xmlns="http://www.w3.org/2000/svg">
<g clip-path="url(#clip0)">
<path fill-rule="evenodd" clip-rule="evenodd" d="M0 2C0 1.60218 0.154349 1.22064 0.429093 0.93934C0.703836 0.658035 1.07647 0.5 1.46501 0.5H12.2085C12.597 0.5 12.9696 0.658035 13.2444 0.93934C13.5191 1.22064 13.6735 1.60218 13.6735 2V14C13.6735 14.3978 13.5191 14.7794 13.2444 15.0607C12.9696 15.342 12.597 15.5 12.2085 15.5H1.46501C1.07647 15.5 0.703836 15.342 0.429093 15.0607C0.154349 14.7794 0 14.3978 0 14L0 2ZM1.46501 1.5C1.3355 1.5 1.21129 1.55268 1.11971 1.64645C1.02813 1.74021 0.976676 1.86739 0.976676 2V14C0.976676 14.1326 1.02813 14.2598 1.11971 14.3536C1.21129 14.4473 1.3355 14.5 1.46501 14.5H12.2085C12.338 14.5 12.4622 14.4473 12.5538 14.3536C12.6453 14.2598 12.6968 14.1326 12.6968 14V2C12.6968 1.86739 12.6453 1.74021 12.5538 1.64645C12.4622 1.55268 12.338 1.5 12.2085 1.5H1.46501Z" fill="black"/>
<path fill-rule="evenodd" clip-rule="evenodd" d="M15.1386 3C15.2682 3 15.3924 3.05268 15.4839 3.14645C15.5755 3.24021 15.627 3.36739 15.627 3.5V14C15.627 14.3978 15.4726 14.7794 15.1979 15.0607C14.9231 15.342 14.5505 15.5 14.162 15.5H11.2319V14.5H14.162C14.2915 14.5 14.4157 14.4473 14.5073 14.3536C14.5989 14.2598 14.6503 14.1326 14.6503 14V3.5C14.6503 3.36739 14.7018 3.24021 14.7933 3.14645C14.8849 3.05268 15.0091 3 15.1386 3Z" fill="black"/>
<path d="M1.95312 3H11.7199V5H1.95312V3ZM1.95312 6H5.85983V9H1.95312V6ZM1.95312 10H5.85983V11H1.95312V10ZM1.95312 12H5.85983V13H1.95312V12ZM6.83651 6H8.78986V7H6.83651V6ZM9.76654 6H11.7199V7H9.76654V6ZM6.83651 8H8.78986V9H6.83651V8ZM9.76654 8H11.7199V9H9.76654V8ZM6.83651 10H8.78986V11H6.83651V10ZM9.76654 10H11.7199V11H9.76654V10ZM6.83651 12H8.78986V13H6.83651V12ZM9.76654 12H11.7199V13H9.76654V12Z" fill="black"/>
</g>
<path d="M15.1392 19C17.5665 19 19.5342 16.9853 19.5342 14.5C19.5342 12.0147 17.5665 10 15.1392 10C12.7119 10 10.7441 12.0147 10.7441 14.5C10.7441 16.9853 12.7119 19 15.1392 19Z" stroke="black" stroke-linecap="round" stroke-linejoin="round"/>
<path d="M15.1401 16.3V14.5" stroke="black" stroke-linecap="round" stroke-linejoin="round"/>
<path d="M15.1401 12.7H15.1451" stroke="black" stroke-linecap="round" stroke-linejoin="round"/>
<defs>
<clipPath id="clip0">
<rect width="15.6268" height="16" fill="white"/>
</clipPath>
</defs>
</svg>
