<svg width="17" height="17" viewBox="0 0 17 17" fill="none" xmlns="http://www.w3.org/2000/svg">
<path d="M15.2703 5.54285C15.2898 5.39495 15.3 5.24705 15.3 5.1C15.3 3.07785 13.4785 1.4552 11.4572 1.72975C10.8681 0.6817 9.7461 0 8.5 0C7.2539 0 6.1319 0.6817 5.54285 1.72975C3.5173 1.4552 1.7 3.07785 1.7 5.1C1.7 5.24705 1.7102 5.39495 1.72975 5.54285C0.6817 6.13275 0 7.25475 0 8.5C0 9.74525 0.6817 10.8673 1.72975 11.4572C1.71014 11.604 1.7002 11.7519 1.7 11.9C1.7 13.9222 3.5173 15.5406 5.54285 15.2703C6.1319 16.3183 7.2539 17 8.5 17C9.7461 17 10.8681 16.3183 11.4572 15.2703C13.4785 15.5406 15.3 13.9222 15.3 11.9C15.3 11.753 15.2898 11.6051 15.2703 11.4572C16.3183 10.8673 17 9.74525 17 8.5C17 7.25475 16.3183 6.13275 15.2703 5.54285ZM7.61175 12.2536L4.4948 9.0967L5.7052 7.9033L7.62365 9.8464L11.3016 6.1965L12.4984 7.4035L7.61175 12.2536Z" fill="#FFBA3E"/>
</svg>
