<svg width="14" height="15" viewBox="0 0 14 15" fill="none" xmlns="http://www.w3.org/2000/svg">
<path d="M8.62663 14.0522H4.60105C2.13069 14.0522 0.128174 12.1165 0.128174 9.72845H13.0995C13.0995 12.1165 11.097 14.0522 8.62663 14.0522Z" fill="#FFE9D1"/>
<path d="M10.2025 2.317H10.0103L10.6189 1.70836C10.9901 1.34917 11.0311 0.767857 10.7138 0.360243C10.3695 -0.0593933 9.74996 -0.120078 9.33054 0.2243C9.30576 0.244682 9.2819 0.266231 9.25922 0.28892L8.62073 0.927412V0.73518C8.62906 0.355602 8.34144 0.0343749 7.96324 0.00102005C7.5802 -0.0195791 7.25273 0.274291 7.2321 0.657587C7.2314 0.670316 7.23118 0.683072 7.23118 0.6958V1.85378C7.23164 1.47002 6.92108 1.15853 6.53733 1.15807C6.5246 1.15807 6.51184 1.15832 6.49912 1.159C6.12092 1.19257 5.8333 1.51358 5.84163 1.89316V3.01175C5.84209 2.628 5.53153 2.31651 5.14778 2.31605C5.13505 2.31605 5.12229 2.31629 5.10957 2.31697C4.73138 2.35033 4.44375 2.67155 4.45208 3.05113V6.48565H8.38912C8.77287 6.48565 9.08389 6.17463 9.08389 5.79087C9.08389 5.40712 8.77287 5.09609 8.38912 5.09609H9.50771C9.88728 5.10443 10.2085 4.8168 10.2419 4.4386C10.2625 4.05555 9.96859 3.72808 9.5853 3.70746C9.57257 3.70699 9.55981 3.70653 9.54709 3.70653H10.2419C10.6256 3.70699 10.9371 3.39643 10.9376 3.01268C10.9376 2.99995 10.9373 2.98719 10.9366 2.97446C10.9033 2.5963 10.5821 2.30864 10.2025 2.317Z" fill="#A8D161"/>
<path d="M10.2025 3.39793H10.0103L10.6189 2.78929C10.9901 2.4301 11.0311 1.84879 10.7138 1.44118C10.3695 1.02154 9.74996 0.960855 9.33054 1.30523C9.30576 1.32561 9.2819 1.34716 9.25922 1.36985L8.62073 2.00834V1.81611C8.62906 1.43653 8.34144 1.11531 7.96324 1.08195C7.5802 1.06135 7.25273 1.35522 7.2321 1.73852C7.2314 1.75125 7.23118 1.764 7.23118 1.77673V2.93471C7.23164 2.55095 6.92108 2.23947 6.53733 2.23901C6.5246 2.23901 6.51184 2.23925 6.49912 2.23993C6.12092 2.2735 5.8333 2.59451 5.84163 2.97409V4.09269C5.84209 3.70893 5.53153 3.39744 5.14778 3.39698C5.13505 3.39698 5.12229 3.39723 5.10957 3.3979C4.73138 3.43126 4.44375 3.75249 4.45208 4.13207V7.56659H8.38912C8.77287 7.56659 9.08389 7.25556 9.08389 6.87181C9.08389 6.48805 8.77287 6.17703 8.38912 6.17703H9.50771C9.88728 6.18536 10.2085 5.89773 10.2419 5.51954C10.2625 5.13648 9.96859 4.80901 9.5853 4.78839C9.57257 4.78793 9.55981 4.78747 9.54709 4.78747H10.2419C10.6256 4.78793 10.9371 4.47737 10.9376 4.09361C10.9376 4.08088 10.9373 4.06812 10.9366 4.0554C10.9033 3.67723 10.5821 3.38957 10.2025 3.39793Z" fill="#37B361"/>
<path d="M9.79328 2.74734L9.48759 2.44165L8.55948 3.36976V2.8107H8.12712V3.80212L7.26235 4.66688V3.89162H6.82999V5.09924L5.96522 5.96401V4.97257H5.53286V6.39637L3.43433 8.49491L3.74001 8.80062L5.83855 6.70208H7.26235V6.2697H6.27094L7.13568 5.40496H8.3433V4.97257H7.56806L8.43281 4.10783H9.42425V3.67544H8.86519L9.79328 2.74734Z" fill="#6B962A"/>
<path d="M11.8022 4.10763V3.67524C12.0411 3.67524 12.2346 3.48176 12.2346 3.24286C12.2346 3.00395 12.0412 2.8105 11.8022 2.8105V2.37811C12.2798 2.37811 12.667 2.7653 12.667 3.24286C12.667 3.72041 12.2798 4.10763 11.8022 4.10763Z" fill="#DE4C3C"/>
<path d="M5.2072 1.22683L4.81396 1.40662L4.99375 1.79985L5.38698 1.62006L5.2072 1.22683Z" fill="#DE4C3C"/>
<path d="M6.61378 8.21521H6.1814V8.6476H6.61378V8.21521Z" fill="#DE4C3C"/>
<path d="M1.08242 4.53691L0.773682 4.23419L0.470961 4.54293L0.779695 4.84565L1.08242 4.53691Z" fill="#E2980B"/>
<path d="M7.74493 8.88574L8.23796 8.6643C8.3603 8.93668 8.68002 9.05825 8.95243 8.93589C9.22484 8.81354 9.34636 8.49383 9.22401 8.22141L9.71703 7.99997C9.96161 8.54452 9.71842 9.18432 9.17389 9.42889C8.62936 9.67347 7.98952 9.43028 7.74493 8.88574Z" fill="#FDB62F"/>
<path d="M3.30051 2.93135L3.15089 2.89313C3.20015 2.70031 3.03913 2.49271 2.79121 2.42938C2.54329 2.36605 2.30244 2.47101 2.25319 2.66384L2.10358 2.62562C1.85566 2.56229 1.61481 2.66725 1.56555 2.86008C1.5163 3.0529 1.67731 3.26051 1.92523 3.32383L3.12216 3.62956C3.37008 3.69289 3.61093 3.58793 3.66019 3.39511C3.70944 3.20228 3.54843 2.99468 3.30051 2.93135Z" fill="#A8D161"/>
<path d="M11.4779 6.48566C10.5823 6.48566 9.85645 6.96957 9.85645 7.5666C9.85645 8.16363 10.5823 8.64754 11.4779 8.64754C12.3734 8.64754 13.0993 8.16363 13.0993 7.5666C13.0993 6.96957 12.3734 6.48566 11.4779 6.48566ZM11.4779 8.10707C11.0301 8.10707 10.6672 7.86512 10.6672 7.5666C10.6672 7.26807 11.0301 7.02613 11.4779 7.02613C11.9256 7.02613 12.2886 7.26807 12.2886 7.5666C12.2886 7.86512 11.9256 8.10707 11.4779 8.10707Z" fill="#E5E5E5"/>
<path d="M9.91643 9.72845C8.09777 11.985 5.42478 13.2597 3.37085 13.9517C3.69291 14.0181 4.02166 14.0518 4.35131 14.0522H8.4951C11.038 14.0522 13.0993 12.1165 13.0993 9.72845H9.91643V9.72845Z" fill="#FC9E38"/>
<path d="M12.8833 9.72845H0.344354C0.225028 9.72845 0.128174 9.8165 0.128174 9.92498C0.130986 12.2032 2.16208 14.0497 4.66813 14.0522H8.55952C11.0656 14.0497 13.0967 12.2032 13.0995 9.92498C13.0995 9.81648 13.0026 9.72845 12.8833 9.72845ZM8.5595 13.6591H4.66811C2.48459 13.6568 0.683761 12.1038 0.566158 10.1215H12.6615C12.5439 12.1038 10.743 13.6568 8.5595 13.6591Z" fill="black"/>
<path d="M10.9361 4.0023C10.9134 3.65201 10.6778 3.35153 10.3428 3.24644L10.5841 3.00487C10.9995 2.59843 11.0429 1.94448 10.6846 1.48676C10.2949 1.0125 9.59474 0.944065 9.12048 1.33354C9.09252 1.35644 9.0658 1.3808 9.04037 1.40623L8.7721 1.6743C8.63289 1.22952 8.1595 0.98201 7.71472 1.12122C7.3619 1.23183 7.12224 1.55903 7.12308 1.92859V2.25345C6.71664 2.01972 6.19769 2.15958 5.96396 2.56602C5.88408 2.70503 5.84509 2.86396 5.85164 3.02416V3.31299C5.70925 3.23161 5.5465 3.19285 5.3827 3.2011C4.92307 3.23499 4.57047 3.62278 4.58021 4.08368V7.13854L3.37085 8.3479L3.67048 8.64753L4.87984 7.43817H8.3945C8.86259 7.43795 9.24211 7.05843 9.24191 6.59033C9.24191 6.44158 9.2027 6.29556 9.12833 6.16673H9.418C9.87868 6.17649 10.2663 5.82386 10.3004 5.36446C10.3097 5.19832 10.2697 5.03324 10.1853 4.89C10.3832 4.86691 10.5667 4.77535 10.7043 4.63104C10.8653 4.46278 10.9492 4.23498 10.9361 4.0023ZM10.3972 4.33923C10.3175 4.42399 10.2061 4.47189 10.0898 4.47147H9.45404C9.33707 4.47147 9.24214 4.5664 9.24214 4.68337C9.24214 4.80033 9.33707 4.89526 9.45404 4.89526C9.68818 4.89484 9.87806 5.08449 9.87848 5.31844C9.87848 5.32629 9.87825 5.33411 9.87783 5.34196C9.85282 5.57526 9.65237 5.74989 9.418 5.74288H8.3945C8.27753 5.74288 8.1826 5.83782 8.1826 5.95478C8.1826 6.07174 8.27753 6.16668 8.3945 6.16668C8.62864 6.16668 8.81832 6.35633 8.81832 6.5905C8.81832 6.82465 8.62867 7.01432 8.3945 7.01432H5.30363L5.72746 6.5905H7.12306V6.16668H6.15125L6.99887 5.31906H8.18257V4.89524H7.42266L8.27028 4.04762H9.24209V3.6238H8.6941L9.60385 2.71412L9.30422 2.41449L8.3945 3.32422V2.77623H7.97067V3.74804L7.12306 4.59566V3.83575H6.69924V5.01945L5.85162 5.8671V4.89529H5.4278V6.29092L5.00398 6.71474V4.0837C4.99697 3.84933 5.17137 3.64888 5.4047 3.62387C5.63843 3.61116 5.83826 3.79023 5.85097 4.02396C5.8514 4.0318 5.85162 4.03985 5.85162 4.0477C5.85162 4.16466 5.94655 4.25959 6.06352 4.25959C6.18048 4.25959 6.27542 4.16466 6.27542 4.0477V3.02416C6.26841 2.78979 6.44281 2.58934 6.67614 2.56433C6.90987 2.55162 7.1097 2.73069 7.12241 2.96441C7.12283 2.97226 7.12306 2.98031 7.12306 2.98815C7.12306 3.10512 7.21799 3.20005 7.33496 3.20005C7.45192 3.20005 7.54685 3.10512 7.54685 2.98815V1.92859C7.54643 1.69444 7.73588 1.50457 7.97003 1.50414C7.97788 1.50414 7.98592 1.50437 7.99377 1.50479C8.22707 1.5298 8.4017 1.73025 8.3945 1.96462V2.14051C8.3945 2.25747 8.48943 2.35241 8.60639 2.35241C8.66254 2.35241 8.71638 2.33016 8.75621 2.29033L9.34043 1.70589C9.60954 1.43762 10.045 1.43846 10.3133 1.70758C10.3288 1.72324 10.3436 1.73958 10.3576 1.75652C10.5782 2.04535 10.5466 2.4537 10.2842 2.70523L9.72735 3.26213C9.6447 3.345 9.6447 3.47912 9.72735 3.56177C9.7674 3.60182 9.82144 3.62407 9.87781 3.62385H10.0537C10.2881 3.61685 10.4885 3.79147 10.5135 4.02478C10.5201 4.14132 10.478 4.25512 10.3972 4.33923Z" fill="#232323"/>
<path d="M1.87517 3.83188L2.00608 3.86531L1.89911 4.28411C1.87943 4.36116 1.9221 4.43868 1.99436 4.45714L2.51802 4.59089C2.59028 4.60935 2.66491 4.56179 2.68459 4.48474L2.79156 4.06595L2.92247 4.09939C3.21166 4.17325 3.50999 3.98313 3.58876 3.67476C3.66752 3.36639 3.49691 3.05649 3.20772 2.98262L3.19123 2.97841C3.19554 2.66128 2.95592 2.40855 2.6563 2.41379C2.4585 2.41726 2.27478 2.53435 2.1769 2.71932L2.16041 2.7151C1.87123 2.64124 1.57289 2.83136 1.49412 3.13973C1.41536 3.4481 1.58598 3.75801 1.87517 3.83188ZM2.45842 4.27827L2.1966 4.2114L2.26792 3.9322L2.52974 3.99907L2.45842 4.27827ZM2.08911 2.99429L2.22002 3.02773C2.29228 3.04619 2.36691 2.99863 2.38659 2.92158C2.42599 2.76733 2.57507 2.6723 2.71974 2.70926C2.86441 2.74621 2.94967 2.90107 2.91026 3.05534C2.89058 3.13239 2.93326 3.20991 3.00552 3.22837L3.13643 3.26181C3.28108 3.29876 3.36635 3.45362 3.32695 3.60789C3.28755 3.76214 3.13847 3.85716 2.9938 3.82021L1.94648 3.55269C1.80182 3.51574 1.71655 3.36088 1.75596 3.20661C1.79536 3.05236 1.94458 2.95737 2.08911 2.99429Z" fill="black"/>
<path d="M2.09314 6.70783L1.90605 6.70221C1.91571 6.38068 1.67227 6.11254 1.36223 6.10322C1.05219 6.0939 0.793074 6.34693 0.783407 6.66845L0.596308 6.66283C0.286266 6.6535 0.0271533 6.90653 0.0174861 7.22805C0.00781899 7.54958 0.251262 7.81772 0.561303 7.82704L2.05814 7.87204C2.36818 7.88136 2.6273 7.62834 2.63696 7.30681C2.64663 6.98529 2.40319 6.71715 2.09314 6.70783Z" fill="#37B361"/>
<path d="M1.74621 7.86268L0.873047 7.83643L0.846794 8.70958L1.71995 8.73584L1.74621 7.86268Z" fill="#A8D161"/>
<path d="M11.478 6.48566C11.1794 6.48566 10.9375 6.7276 10.9375 7.02613C10.9375 7.32465 11.1794 7.5666 11.478 7.5666C11.7765 7.5666 12.0184 7.32465 12.0184 7.02613C12.0184 6.7276 11.7765 6.48566 11.478 6.48566ZM11.478 7.20628C11.3785 7.20628 11.2978 7.12557 11.2978 7.02613C11.2978 6.92669 11.3785 6.84598 11.478 6.84598C11.5774 6.84598 11.6581 6.92669 11.6581 7.02613C11.6581 7.12557 11.5774 7.20628 11.478 7.20628Z" fill="#BB4141"/>
<path d="M11.4779 5.40472C10.5824 5.40472 9.85645 6.13065 9.85645 7.02614C9.85645 7.92163 10.5824 8.64755 11.4779 8.64755C12.3734 8.64755 13.0993 7.92163 13.0993 7.02616C13.0983 6.13113 12.3729 5.40589 11.4779 5.40472ZM11.4779 8.18431C10.8383 8.18431 10.3197 7.66569 10.3197 7.02614C10.3197 6.38659 10.8383 5.86797 11.4779 5.86797C12.1174 5.86797 12.636 6.38659 12.636 7.02614C12.6353 7.66547 12.1172 8.18363 11.4779 8.18431Z" fill="black"/>
</svg>
