<svg xmlns="http://www.w3.org/2000/svg" viewBox="0 0 23 23"><title>home nonaktif</title><g id="Layer_2" data-name="Layer 2"><g id="Layer_1-2" data-name="Layer 1"><path d="M3.09,12h0C6.23,8.94,8.22,7,11.41,3.72L19.72,12h0a2,2,0,0,1,.58,1.38v7.11a2,2,0,0,1-2,2H4.47a2,2,0,0,1-2-2v-7.1A2,2,0,0,1,3.09,12Z" fill="#fff"/><rect x="13.95" y="15.49" width="3.96" height="3.47" fill="#7d7d7d"/><path d="M22.57,10.44,19.84,7.71V3.3H17.2V5.08L12.55.43a1.57,1.57,0,0,0-2.15,0l-10,10a1.57,1.57,0,0,0,0,2.15A1.56,1.56,0,0,0,2,12.93v1.62H2v6A2.46,2.46,0,0,0,4.47,23H5.8v0h5.65v0h6.89a2.46,2.46,0,0,0,2.46-2.45v-6h0V12.84a1.51,1.51,0,0,0,1.77-2.4ZM19.8,20.53A1.46,1.46,0,0,1,18.34,22H11.45V17.45a2.83,2.83,0,1,0-5.65,0V22H4.47A1.46,1.46,0,0,1,3,20.53v-7L11.4,5.17l8.4,8.38Z" fill="#7d7d7d"/></g></g></svg>