<svg xmlns="http://www.w3.org/2000/svg" viewBox="0 0 23.82 23"><title>signin_aktif</title><g id="Layer_2" data-name="Layer 2"><g id="Layer_1-2" data-name="Layer 1"><path d="M22,.48V19.64a.47.47,0,0,1-.46.48h-11a2.71,2.71,0,0,1-2-.93.88.88,0,0,1-.29-.67V16.45h0V11.5h0V11h3L8.92,13.5a1,1,0,0,0,0,1.39.91.91,0,0,0,.66.3h0a.92.92,0,0,0,.65-.28l0,0,3.94-4.13a1.11,1.11,0,0,0,.21-.32,1,1,0,0,0-.21-1.08L10.25,5.22h0a.9.9,0,0,0-1.32,0,1,1,0,0,0,0,1.37l2.35,2.47h-3V8.63h0V2.4A2.34,2.34,0,0,1,10.57,0h11A.48.48,0,0,1,22,.48Z" fill="#d99a00"/><path d="M21.84,0a1.88,1.88,0,0,0-.77.17L15.88,2.5a2.08,2.08,0,0,0-1.2,1.9V20.93a2,2,0,0,0,2,2.07,1.88,1.88,0,0,0,.77-.17l5.19-2.33a2.07,2.07,0,0,0,1.2-1.9V2.07A2,2,0,0,0,21.84,0Z" fill="#ffd25e"/><path d="M17,13.42a.47.47,0,0,1-.46-.48V11a.46.46,0,1,1,.91,0v1.92A.47.47,0,0,1,17,13.42Z" fill="#b81b19"/><path d="M13.88,10.21a.57.57,0,0,1-.08.13l-4,4.15h0a.39.39,0,0,1-.27.11.4.4,0,0,1-.27-.12.44.44,0,0,1,0-.57l3.31-3.46H.38a.39.39,0,0,1-.38-.4.38.38,0,0,1,.38-.39H12.62L9.32,6.2a.41.41,0,0,1,0-.55.38.38,0,0,1,.54,0L13.8,9.78A.4.4,0,0,1,13.88,10.21Z" fill="#425b6c"/></g></g></svg>