<svg xmlns="http://www.w3.org/2000/svg" viewBox="0 0 23.82 23"><title>signin_nonaktif</title><g id="Layer_2" data-name="Layer 2"><g id="Layer_1-2" data-name="Layer 1"><path d="M21.43,20.19H10.65a2.92,2.92,0,0,1-2.09-1,1.14,1.14,0,0,1-.35-.82V16.59h0V11.28h0v-.45h3.66L9.18,13.64a.78.78,0,0,0,0,1,.68.68,0,0,0,.49.22h0a.7.7,0,0,0,.49-.2v0h0l3.87-4.06a.78.78,0,0,0,.16-.24h0a.74.74,0,0,0-.16-.8L10.18,5.51a.68.68,0,0,0-1,0,.74.74,0,0,0,0,1l2.68,2.81H8.2V8.91h0V2.58A2.52,2.52,0,0,1,10.65,0H21.43a.65.65,0,0,1,.47.2.76.76,0,0,1,.19.5V19.49A.68.68,0,0,1,21.43,20.19Zm-10.78-.45H21.43a.24.24,0,0,0,.23-.25V.7a.24.24,0,0,0-.07-.17.21.21,0,0,0-.16-.08H10.65a2.09,2.09,0,0,0-2,2.13v3a1.14,1.14,0,0,1,.23-.38,1.11,1.11,0,0,1,.81-.36,1.09,1.09,0,0,1,.81.33h0l3.88,4.06a1.22,1.22,0,0,1,.25,1.3h0a1.36,1.36,0,0,1-.25.39L10.49,15l0,0a1.08,1.08,0,0,1-.79.34h0a1.12,1.12,0,0,1-.8-.37,1,1,0,0,1-.21-.32v1.47h0V18.4a.71.71,0,0,0,.21.49h0A2.56,2.56,0,0,0,10.65,19.74Zm-2-8v1.93a1.41,1.41,0,0,1,.23-.35l1.94-2H8.64v.45h0Zm0-2.83h2.17l-1.94-2a1,1,0,0,1-.24-.38v2h0V8.9Z" fill="#7d7d7d"/><path d="M21.85.06a1.89,1.89,0,0,0-.78.17L15.88,2.55a2.05,2.05,0,0,0-1.19,1.9V20.94a2,2,0,0,0,2,2.06,1.92,1.92,0,0,0,.78-.17l5.19-2.32a2.08,2.08,0,0,0,1.19-1.9V2.13A2,2,0,0,0,21.85.06Z" fill="#7d7d7d"/><path d="M17,13.44a.46.46,0,0,1-.46-.47V11.05a.47.47,0,0,1,.46-.47.46.46,0,0,1,.45.47V13A.46.46,0,0,1,17,13.44Z" fill="#fff"/><path d="M13.88,10.25a.32.32,0,0,1-.08.12l-4,4.14h0a.39.39,0,0,1-.27.11.4.4,0,0,1-.27-.12.43.43,0,0,1-.1-.29A.39.39,0,0,1,9.31,14l3.31-3.46H.38a.39.39,0,0,1-.38-.4A.38.38,0,0,1,.38,9.7H12.62L9.32,6.24a.4.4,0,0,1,0-.54.37.37,0,0,1,.54,0L13.8,9.82A.4.4,0,0,1,13.88,10.25Z" fill="#7d7d7d"/></g></g></svg>