<svg xmlns="http://www.w3.org/2000/svg" viewBox="0 0 23.1 27"><title>profil nonaktif</title><g id="Layer_2" data-name="Layer 2"><g id="Layer_1-2" data-name="Layer 1"><path d="M19.46,20.51l-1.23-.61-1.92,4.25L11.55,21,6.8,24.15,4.88,19.9l-1.24.61a4.75,4.75,0,0,0-1.92,1.77A4.82,4.82,0,0,0,1,24.79c0,.84.13,1,.13,1a.55.55,0,0,0,.25.1A6.4,6.4,0,0,0,2.1,26H21.46c.43-.07.52-.17.53-.19s.13-.24.11-1a4.84,4.84,0,0,0-2.64-4.31Z" fill="#fff"/><polygon points="16.77 19.42 16 21.46 15.48 21.12 15.45 21.18 13.12 19.62 14.63 18.11 16.43 19 16.35 19.18 16.77 19.42" fill="#fff"/><polygon points="10.29 19.93 7.88 21.53 7.69 21.15 7.64 21.18 7.24 20.29 6.92 19.57 6.66 19 8.46 18.11 10.29 19.93" fill="#fff"/><polygon points="6.08 19.95 6.01 19.99 6.01 19.98 6.08 19.95" fill="#7d7d7d"/><polygon points="13.43 15.74 13.43 16.48 11.55 18.36 9.66 16.48 9.66 15.74 9.66 13.63 9.66 13.56 13.43 13.56 13.43 13.63 13.43 15.74" fill="#fff"/><path d="M22.24,21.75a5.83,5.83,0,0,0-2.33-2.13l-2.17-1.08h0l-3.3-1.65L13,18.34l1.44-1.45v-2.6a5.28,5.28,0,0,0,1.2-.91A5.78,5.78,0,0,0,17.32,9.3V5.77a5.78,5.78,0,0,0-11.55,0V9.3a5.77,5.77,0,0,0,2.89,5v2.6h0l-3.3,1.65h0L6,20H6l.08,0L6,20H6l-.65-1.45L3.19,19.62A5.74,5.74,0,0,0,.87,21.75a5.81,5.81,0,0,0-.87,3,2.12,2.12,0,0,0,.48,1.74,1.59,1.59,0,0,0,.64.31A8.73,8.73,0,0,0,2,27h19.5a1.75,1.75,0,0,0,1.27-.6,2.62,2.62,0,0,0,.29-1.6A5.82,5.82,0,0,0,22.24,21.75Zm-7.6-3.64,1.8.89-.08.18.41.24-.76,2-.53-.34,0,.06-2.34-1.56Zm1.27,4.49,0,.06h0l0-.06ZM8.17,12.67A4.79,4.79,0,0,1,6.77,9.3V5.77a4.78,4.78,0,1,1,9.55,0V9.3a4.74,4.74,0,0,1-1.4,3.37,4,4,0,0,1-.49.43,4.35,4.35,0,0,1-1,.58,4.73,4.73,0,0,1-4.77-.59A3.89,3.89,0,0,1,8.17,12.67Zm3.38,2.4a5.67,5.67,0,0,0,1.88-.32v1.73l-1.88,1.88L9.66,16.48V14.74A5.49,5.49,0,0,0,11.55,15.07Zm-3.08,3,1.82,1.82-2.4,1.6-.2-.38,0,0-.4-.89h0l-.32-.72L6.67,19ZM6.18,20.35l.07,0h0l-.06,0h0l1,2.31h0l-1-2.33ZM22,25.81s-.1.12-.53.19H2.1a6.4,6.4,0,0,1-.72-.13.55.55,0,0,1-.25-.1s-.15-.14-.13-1a4.82,4.82,0,0,1,.72-2.51,4.75,4.75,0,0,1,1.92-1.77l1.24-.61L6.8,24.15,11.55,21l4.76,3.17,1.92-4.25,1.23.61a4.84,4.84,0,0,1,2.64,4.31C22.12,25.57,22,25.77,22,25.81Z" fill="#7d7d7d"/><path d="M11.55,1A4.76,4.76,0,0,0,6.77,5.77V9.3a4.78,4.78,0,0,0,9.55,0V5.77A4.76,4.76,0,0,0,11.55,1Z" fill="#fff"/></g></g></svg>