<svg xmlns="http://www.w3.org/2000/svg" xmlns:xlink="http://www.w3.org/1999/xlink" viewBox="0 0 23.1 27"><defs><linearGradient id="linear-gradient" x1="11.55" y1="-3888.31" x2="11.55" y2="-3896.77" gradientTransform="matrix(1, 0, 0, -1, 0, -3869.77)" gradientUnits="userSpaceOnUse"><stop offset="0" stop-color="#425b6c"/><stop offset="1" stop-color="#425b6c"/></linearGradient></defs><title>profil aktif</title><g id="Layer_2" data-name="Layer 2"><g id="Layer_1-2" data-name="Layer 1"><path d="M15.88,22.67l1.87-4.13,2.16,1.08a5.86,5.86,0,0,1,2.33,2.14,5.79,5.79,0,0,1,.86,3c0,1.52-.29,2-1.6,2.21H2c-1.33-.18-2-.32-2-2.21a5.89,5.89,0,0,1,.87-3,5.83,5.83,0,0,1,2.32-2.14l2.17-1.08,1.86,4.13,4.33-2.89Z" fill="url(#linear-gradient)"/><path d="M8.67,17.89,12,20,7.5,23,6,20Z" fill="#c82a28"/><path d="M15.5,17.5,18,19l-1.5,4-3-2Z" fill="#c82a28"/><path d="M8.67,16.89l2.88,2.89L7.22,22.67,5.36,18.54Z" fill="#ea3528"/><path d="M17.75,18.54l-1.87,4.13-4.33-2.89,2.89-2.89Z" fill="#ea3528"/><path d="M14.44,12.56v4.33l-2.89,2.89L8.66,16.89V12.56Z" fill="#ffd15d"/><path d="M14.44,13.63v2.11a5.74,5.74,0,0,1-5.78,0V13.63Z" fill="#f6b64c"/><path d="M5.78,5.77V8.66h0V9.3a5.78,5.78,0,1,0,11.55,0V6.42h0V5.77a5.78,5.78,0,0,0-11.55,0Z" fill="#ffd15d" fill-rule="evenodd"/></g></g></svg>