<svg xmlns="http://www.w3.org/2000/svg" viewBox="0 0 16.79 22.3"><title>riwayat aktif</title><g id="Layer_2" data-name="Layer 2"><g id="Layer_1-2" data-name="Layer 1"><rect x="0.4" y="1.49" width="16" height="20.29" rx="0.95" fill="#ffd25e"/><path d="M12,22.3V1h3.79a1,1,0,0,1,1,1V21.3a1,1,0,0,1-1,1Z" fill="#ecb11b" fill-opacity="0.5" fill-rule="evenodd"/><rect x="0.5" y="1.5" width="15.79" height="20.3" rx="0.5" fill="none" stroke="#425b6c"/><rect x="3.71" y="4.26" width="2.83" height="2.88" rx="1" fill="#fff"/><rect x="3.71" y="10.01" width="2.83" height="2.88" rx="1" fill="#fff"/><rect x="3.71" y="15.76" width="2.83" height="2.88" rx="1" fill="#fff"/><path d="M13.43,5.26H9a.36.36,0,1,1,0-.71h4.46a.36.36,0,1,1,0,.71Z" fill="#fff"/><path d="M11.2,6.76H9A.36.36,0,1,1,9,6H11.2a.36.36,0,0,1,0,.72Z" fill="#ea3528"/><path d="M11.28,11H8.91a.32.32,0,0,1-.28-.34.33.33,0,0,1,.28-.35h2.37a.32.32,0,0,1,.28.35A.31.31,0,0,1,11.28,11Z" fill="#fff"/><path d="M12.34,12.52H9.15c-.29,0-.52-.17-.52-.39s.23-.38.52-.38h3.19c.29,0,.52.17.52.38S12.63,12.52,12.34,12.52Z" fill="#fff"/><path d="M12,16.74H9A.36.36,0,1,1,9,16h3a.36.36,0,1,1,0,.71Z" fill="#fff"/><path d="M11.2,18.24H9a.36.36,0,0,1,0-.72H11.2a.36.36,0,1,1,0,.72Z" fill="#ea3528"/><path d="M6.38,1a1,1,0,0,1,1-1H9.63a1,1,0,0,1,1,1v.8H6.38Z" fill="#ea3528"/></g></g></svg>