<svg xmlns="http://www.w3.org/2000/svg" xmlns:xlink="http://www.w3.org/1999/xlink" viewBox="0 0 23 23"><defs><linearGradient id="linear-gradient" x1="11.4" y1="-3882.78" x2="11.4" y2="-3902.74" gradientTransform="matrix(1, 0, 0, -1, 0, -3879.77)" gradientUnits="userSpaceOnUse"><stop offset="0.64" stop-color="#ffd15d"/><stop offset="1" stop-color="#e7b538"/></linearGradient></defs><title>home aktif</title><g id="Layer_2" data-name="Layer 2"><g id="Layer_1-2" data-name="Layer 1"><path d="M19.84,3.3H17.2V7.9h2.64Z" fill="#f5a335"/><path d="M2,13.42v7.1A2.46,2.46,0,0,0,4.47,23H18.34a2.46,2.46,0,0,0,2.46-2.46V13.41a2.45,2.45,0,0,0-.72-1.73L11.4,3C8,6.45,6,8.47,2.74,11.68A2.48,2.48,0,0,0,2,13.42Z" fill="url(#linear-gradient)"/><path d="M20.84,12.4,11.45,3C9.58,4.83,8.15,6.27,6.71,7.71L2,12.4v2.15L11.4,5.17l9.4,9.38V12.4Z" fill="#f6b64c"/><path d="M11.45,23H5.8V17.45a2.83,2.83,0,1,1,5.65,0V23Z" fill="#425b6c"/><path d="M17.91,15.49H14V19h4Z" fill="#fff"/><path d="M22.57,10.44l-10-10a1.57,1.57,0,0,0-2.15,0l-10,10a1.57,1.57,0,0,0,0,2.15,1.58,1.58,0,0,0,2.16,0l8.91-8.9,8.91,8.9a1.52,1.52,0,1,0,2.16-2.15Z" fill="#d99a00"/><path d="M19.59,9.37l1.81,1.81" fill="none" stroke="#b81b19" stroke-linecap="round" stroke-width="1.5"/></g></g></svg>