<svg width="11" height="11" viewBox="0 0 11 11" fill="none" xmlns="http://www.w3.org/2000/svg">
<path d="M7.40581 11H7.42005C7.68849 11 7.9422 10.8942 8.13438 10.7021L9.51323 9.32322C9.56048 9.27604 9.59797 9.22001 9.62355 9.15833C9.64913 9.09665 9.6623 9.03054 9.6623 8.96376C9.6623 8.89699 9.64913 8.83087 9.62355 8.76919C9.59797 8.70751 9.56048 8.65148 9.51323 8.60431L7.47953 6.57061C7.43236 6.52336 7.37633 6.48587 7.31465 6.46029C7.25297 6.43471 7.18685 6.42154 7.12008 6.42154C7.0533 6.42154 6.98719 6.43471 6.92551 6.46029C6.86383 6.48587 6.8078 6.52336 6.76062 6.57061L5.95019 7.38104C5.57447 7.26919 4.87335 7.01497 4.42899 6.57061C3.98463 6.12625 3.73041 5.42513 3.61856 5.04941L4.42899 4.23898C4.47625 4.1918 4.51373 4.13577 4.53931 4.07409C4.56489 4.01241 4.57806 3.9463 4.57806 3.87952C4.57806 3.81275 4.56489 3.74663 4.53931 3.68495C4.51373 3.62327 4.47625 3.56724 4.42899 3.52007L2.39529 1.48637C2.2981 1.39463 2.1695 1.34352 2.03584 1.34352C1.90218 1.34352 1.77358 1.39463 1.67638 1.48637L0.298046 2.86522C0.104845 3.05842 -0.00395729 3.32382 0.000110097 3.59481C0.0118038 4.3188 0.203479 6.83347 2.18532 8.8153C4.16715 10.7971 6.68182 10.9883 7.40581 11ZM2.03635 2.56474L3.35113 3.87952L2.69374 4.53692C2.63391 4.59658 2.58997 4.67025 2.5659 4.75124C2.54184 4.83223 2.53842 4.91795 2.55596 5.0006C2.56816 5.05907 2.8666 6.44554 3.71059 7.28952C4.55457 8.13351 5.94104 8.43195 5.99951 8.44415C6.08216 8.46179 6.1679 8.45841 6.24891 8.43434C6.32991 8.41027 6.40359 8.36627 6.46319 8.30637L7.12058 7.64898L8.43537 8.96376L7.41547 9.98315C6.78096 9.97248 4.60999 9.80215 2.90423 8.09588C1.19287 6.38453 1.02713 4.20593 1.01696 3.58413L2.03635 2.56474ZM9.15123 5.40734H10.1681C10.1681 2.79912 8.19895 0.832031 5.58718 0.832031V1.84888C7.6524 1.84888 9.15123 3.34517 9.15123 5.40734Z" fill="#009865"/>
<path d="M5.58984 3.88372C6.65873 3.88372 7.11464 4.33963 7.11464 5.40852H8.13117C8.13117 3.76936 7.229 2.86719 5.58984 2.86719V3.88372Z" fill="#009865"/>
</svg>
