<svg xmlns="http://www.w3.org/2000/svg" viewBox="0 0 10 10"><title>call</title><g id="Layer_2" data-name="Layer 2"><g id="Layer_1-2" data-name="Layer 1"><path d="M9,4.74H10A4.64,4.64,0,0,0,5.26,0V1.05A3.57,3.57,0,0,1,9,4.74Z" fill="#009a85"/><path d="M5.26,3.16c1.11,0,1.58.47,1.58,1.58h1A2.37,2.37,0,0,0,5.26,2.11ZM7.06,6a.5.5,0,0,0-.37-.13.52.52,0,0,0-.36.16L5.07,7.34a3.09,3.09,0,0,1-1.54-.87,3.09,3.09,0,0,1-.87-1.54L4,3.67a.52.52,0,0,0,.16-.36A.53.53,0,0,0,4,2.93L2,.8A.5.5,0,0,0,1.67.62.56.56,0,0,0,1.3.75l-1.14,1A.54.54,0,0,0,0,2.07,8,8,0,0,0,2.26,7.74,8,8,0,0,0,7.74,10h.19a.54.54,0,0,0,.34-.16l1-1.14a.51.51,0,0,0,.12-.38A.49.49,0,0,0,9.2,8Z" fill="#009a85"/></g></g></svg>