<svg width="14" height="11" viewBox="0 0 14 11" fill="none" xmlns="http://www.w3.org/2000/svg">
<path d="M0 1.75C0 1.28587 0.184375 0.840752 0.512563 0.512563C0.840752 0.184374 1.28587 0 1.75 0H12.25C12.7141 0 13.1592 0.184374 13.4874 0.512563C13.8156 0.840752 14 1.28587 14 1.75V2.625H0V1.75Z" fill="#BBDEFB"/>
<path fill-rule="evenodd" clip-rule="evenodd" d="M0 4.375V8.75C0 9.21413 0.184375 9.65925 0.512563 9.98744C0.840752 10.3156 1.28587 10.5 1.75 10.5H12.25C12.7141 10.5 13.1592 10.3156 13.4874 9.98744C13.8156 9.65925 14 9.21413 14 8.75V4.375H0ZM2.625 6.125C2.39294 6.125 2.17038 6.21719 2.00628 6.38128C1.84219 6.54538 1.75 6.76794 1.75 7V7.875C1.75 8.10706 1.84219 8.32962 2.00628 8.49372C2.17038 8.65781 2.39294 8.75 2.625 8.75H3.5C3.73206 8.75 3.95462 8.65781 4.11872 8.49372C4.28281 8.32962 4.375 8.10706 4.375 7.875V7C4.375 6.76794 4.28281 6.54538 4.11872 6.38128C3.95462 6.21719 3.73206 6.125 3.5 6.125H2.625Z" fill="#BBDEFB"/>
</svg>
