<svg width="12" height="12" viewBox="0 0 12 12" fill="none" xmlns="http://www.w3.org/2000/svg">
<path d="M1.1 4.70078H6.6C6.98574 4.70078 7.3 5.01505 7.3 5.40078V10.9008C7.3 11.2865 6.98574 11.6008 6.6 11.6008H1.1C0.714264 11.6008 0.4 11.2865 0.4 10.9008V5.40078C0.4 5.01505 0.714264 4.70078 1.1 4.70078Z" stroke="#315FAD" stroke-width="0.8"/>
<path d="M9.90078 1H4.40078C4.10904 1 3.82925 1.11589 3.62296 1.32218C3.41667 1.52847 3.30078 1.80826 3.30078 2.1V3.2H7.70078C7.99252 3.2 8.27231 3.31589 8.4786 3.52218C8.68489 3.72847 8.80078 4.00826 8.80078 4.3V8.7H9.90078C10.1925 8.7 10.4723 8.58411 10.6786 8.37782C10.8849 8.17153 11.0008 7.89174 11.0008 7.6V2.1C11.0008 1.80826 10.8849 1.52847 10.6786 1.32218C10.4723 1.11589 10.1925 1 9.90078 1Z" stroke="#315FAD" stroke-width="0.8"/>
</svg>
