<svg width="19" height="16" viewBox="0 0 19 16" fill="none" xmlns="http://www.w3.org/2000/svg">
<circle cx="3.32158" cy="13.1187" r="2.07498" stroke="#F05A28"/>
<circle cx="16.425" cy="13.1187" r="2.07498" stroke="#F05A28"/>
<path d="M3.29109 13.0882H7.43544M7.43544 13.0882L4.70809 9.58381V9.12671H8.01443C9.18256 8.17189 11.7687 6.3628 13.8043 6.76504M7.43544 13.0882H12.5C13.5 10 14.6016 10.0305 15 10M13.8043 6.76504L12.3111 4L11.7017 4.17483M13.8043 6.76504L15 10M16.3488 13.0882L15 10" stroke="#F05A28" stroke-linecap="round"/>
<path d="M14.0329 6.52124L14.6423 6.70408L14.8861 7.31354L14.5509 7.98395" stroke="#F05A28"/>
<path d="M4.55573 9.50763H0.594223V8.50201" stroke="#F05A28"/>
<path fill-rule="evenodd" clip-rule="evenodd" d="M1.17702 8.83721H4.63192V5.43945H1.17702V8.83721Z" fill="#F05A28"/>
<path d="M6.65487 3.52001C5.97916 3.85486 5.6615 6.37987 5.58713 7.60051C5.55149 8.05176 5.69659 8.95427 6.56202 8.95427C7.37464 9.07616 9.21812 8.87683 9.03528 9.52286C8.74071 10.2339 8.03083 12.2941 8.60372 12.4282C9.17662 12.5623 9.82758 11.2903 10.2999 10.4523C10.5207 10.0605 11.1836 8.76104 10.757 8.4563C10.2451 7.88341 8.93371 7.81637 8.57819 7.69447C7.95349 7.52687 7.69446 7.0647 7.80112 6.64315C8.10228 4.98997 8.12109 4.7955 7.80112 3.80915C7.69539 3.62909 7.33058 3.18516 6.65487 3.52001Z" fill="#F05A28"/>
<path d="M8.83988 1.90421C8.89577 1.65945 8.88183 1.40392 8.79963 1.1667C8.71744 0.929485 8.57029 0.720109 8.37495 0.562408C8.17961 0.404707 7.94391 0.305018 7.6947 0.274688C7.44548 0.244358 7.19275 0.284606 6.96529 0.390851C6.73782 0.497096 6.54475 0.665069 6.40806 0.875649C6.27137 1.08623 6.19655 1.33096 6.19211 1.58197C6.18767 1.83299 6.25379 2.08021 6.38295 2.29549C6.51211 2.51077 6.69911 2.68547 6.92268 2.79969L7.53271 1.60569L8.83988 1.90421Z" fill="#F05A28"/>
<path fill-rule="evenodd" clip-rule="evenodd" d="M7.05453 2.97942C7.24322 3.17725 7.50939 3.30051 7.80436 3.30051C8.37658 3.30051 8.84045 2.83664 8.84045 2.26442C8.84045 2.2081 8.83595 2.15283 8.82731 2.09895L7.6426 1.8284L7.05453 2.97942Z" fill="#F05A28"/>
<path d="M9.44667 2.02647L8.82197 1.88934L8.74579 1.72174L9.49238 1.88934L9.44667 2.02647Z" fill="#F05A28"/>
<path d="M9.30954 4.93665C10.4421 5.14489 11.5219 4.74467 11.5341 5.01284C11.6153 5.16012 11.4518 5.46993 11.0617 5.59183C10.6717 5.71372 9.85298 5.85593 9.00481 5.65277C8.695 5.61214 8.02357 5.0555 7.63352 4.55574C7.24346 4.05598 7.471 3.71773 7.58781 3.68726C7.66907 3.6517 7.77979 3.7482 7.93825 3.93104C8.09671 4.11388 8.96926 4.84016 9.30954 4.93665Z" fill="#F05A28"/>
<path d="M5.53088 10.3609H7.45068L6.78027 12.0064" stroke="#F05A28"/>
<rect y="5.69366" width="1.61508" height="0.396151" fill="#F05A28"/>
<rect y="6.69366" width="1.2" height="0.396151" fill="#F05A28"/>
<rect y="7.69366" width="1.61508" height="0.396151" fill="#F05A28"/>
<path d="M12 7L12.5 9L14 8.33333" stroke="#F05A28"/>
<path d="M15 10C15.6667 9.83334 17.1 9.6 17.5 10" stroke="#F05A28"/>
</svg>
