<svg width="13" height="14" viewBox="0 0 13 14" fill="none" xmlns="http://www.w3.org/2000/svg">
<path d="M1.75207 10.6432V10.643L1.69046 10.643C1.6904 10.643 1.69033 10.643 1.69027 10.643H1.69021L1.75207 10.6432ZM1.75207 10.6432L1.75604 10.6429L4.62217 10.4142L4.62253 10.4142C4.94632 10.386 5.2501 10.261 5.48262 10.0592L5.48278 10.059L11.6687 4.64338L11.6687 4.64339L11.6697 4.64246C11.9195 4.41136 12.056 4.10144 12.0465 3.78023C12.0371 3.45924 11.8827 3.15629 11.6201 2.93703C11.6199 2.93691 11.6198 2.93678 11.6196 2.93665L9.73729 1.28867L9.7373 1.28865L9.73611 1.28767C9.48114 1.07799 9.1481 0.958438 8.80053 0.95043C8.45296 0.942422 8.11336 1.04648 7.84635 1.24397L7.84625 1.24383L7.84315 1.24655L1.65727 6.66219L1.65712 6.66232C1.42642 6.866 1.28157 7.1341 1.24877 7.42216L1.75207 10.6432ZM1.69021 11.7465C1.49665 11.7465 1.30989 11.8138 1.17126 11.9352C1.03242 12.0567 0.952889 12.2231 0.952889 12.3983C0.952889 12.5734 1.03242 12.7398 1.17126 12.8614C1.30989 12.9827 1.49665 13.05 1.69021 13.05H11.3127C11.5062 13.05 11.693 12.9827 11.8316 12.8614C11.9705 12.7398 12.05 12.5734 12.05 12.3983C12.05 12.2231 11.9705 12.0567 11.8316 11.9352C11.693 11.8138 11.5062 11.7465 11.3127 11.7465H1.69021ZM7.48407 3.37172L8.7494 2.23554L10.5489 3.81098L9.25114 4.91876L7.48407 3.37172ZM2.50217 9.27466L2.67955 7.55498L6.50133 4.23284L8.2813 5.79118L4.4877 9.11242L2.50217 9.27466Z" fill="black" stroke="#009865" stroke-width="0.1"/>
</svg>
