<svg width="21" height="33" viewBox="0 0 21 33" fill="none" xmlns="http://www.w3.org/2000/svg">
<g filter="url(#filter0_d)">
<ellipse cx="9.5" cy="31" rx="6.5" ry="1" fill="#4A4A4A"/>
</g>
<g filter="url(#filter1_d)">
<path d="M9.5 1C4.26174 1 0 5.36611 0 10.7327C0 17.4779 9.50934 29 9.50934 29C9.50934 29 19 17.1461 19 10.7327C19 5.36611 14.7384 1 9.5 1ZM12.3663 13.5824C11.576 14.3919 10.5381 14.7968 9.5 14.7968C8.46209 14.7968 7.42385 14.3919 6.63382 13.5824C5.05327 11.9633 5.05327 9.32874 6.63382 7.70947C7.39916 6.92505 8.41722 6.49302 9.5 6.49302C10.5828 6.49302 11.6007 6.92522 12.3663 7.70947C13.9469 9.32874 13.9469 11.9633 12.3663 13.5824Z" fill="#E10000"/>
</g>
<defs>
<filter id="filter0_d" x="1" y="29" width="15" height="4" filterUnits="userSpaceOnUse" color-interpolation-filters="sRGB">
<feFlood flood-opacity="0" result="BackgroundImageFix"/>
<feColorMatrix in="SourceAlpha" type="matrix" values="0 0 0 0 0 0 0 0 0 0 0 0 0 0 0 0 0 0 127 0"/>
<feOffset dx="-1"/>
<feGaussianBlur stdDeviation="0.5"/>
<feColorMatrix type="matrix" values="0 0 0 0 0 0 0 0 0 0 0 0 0 0 0 0 0 0 0.25 0"/>
<feBlend mode="normal" in2="BackgroundImageFix" result="effect1_dropShadow"/>
<feBlend mode="normal" in="SourceGraphic" in2="effect1_dropShadow" result="shape"/>
</filter>
<filter id="filter1_d" x="0" y="0" width="21" height="30" filterUnits="userSpaceOnUse" color-interpolation-filters="sRGB">
<feFlood flood-opacity="0" result="BackgroundImageFix"/>
<feColorMatrix in="SourceAlpha" type="matrix" values="0 0 0 0 0 0 0 0 0 0 0 0 0 0 0 0 0 0 127 0"/>
<feOffset dx="1"/>
<feGaussianBlur stdDeviation="0.5"/>
<feColorMatrix type="matrix" values="0 0 0 0 0 0 0 0 0 0 0 0 0 0 0 0 0 0 0.25 0"/>
<feBlend mode="normal" in2="BackgroundImageFix" result="effect1_dropShadow"/>
<feBlend mode="normal" in="SourceGraphic" in2="effect1_dropShadow" result="shape"/>
</filter>
</defs>
</svg>
