<svg xmlns="http://www.w3.org/2000/svg" viewBox="0 0 25 25"><title>cheklistputih</title><g id="Layer_2" data-name="Layer 2"><g id="Layer_1-2" data-name="Layer 1"><path d="M25,12.5a12.5,12.5,0,1,1-3.66-8.84A12.52,12.52,0,0,1,25,12.5ZM18.8,7.77a1.11,1.11,0,0,0-.39-.26A1.25,1.25,0,0,0,18,7.42a1.2,1.2,0,0,0-.46.11,1.1,1.1,0,0,0-.38.27l-5.43,6.91L8.41,11.44a1.16,1.16,0,0,0-.82-.31,1.19,1.19,0,0,0-.81.34,1.23,1.23,0,0,0-.34.81,1.19,1.19,0,0,0,.32.82l4.13,4.13a1,1,0,0,0,.39.26,1.22,1.22,0,0,0,.46.09,1.46,1.46,0,0,0,.46-.1,1.29,1.29,0,0,0,.38-.28l6.23-7.79a1.18,1.18,0,0,0,.33-.83,1.13,1.13,0,0,0-.34-.81Z" fill="#63d71c" fill-rule="evenodd"/></g></g></svg>