<?xml version="1.0" encoding="UTF-8" standalone="no"?>
<!DOCTYPE svg PUBLIC "-//W3C//DTD SVG 1.1//EN" "http://www.w3.org/Graphics/SVG/1.1/DTD/svg11.dtd">
<svg version="1.1" xmlns="http://www.w3.org/2000/svg" xmlns:xlink="http://www.w3.org/1999/xlink" preserveAspectRatio="xMidYMid meet" viewBox="0 0 640 640" width="640" height="640"><defs><path d="M185.47 14.34C190.99 14.34 195.47 18.82 195.47 24.34C195.47 57.43 195.47 146.72 195.47 179.81C195.47 185.33 190.99 189.81 185.47 189.81C152.38 189.81 63.09 189.81 30 189.81C24.48 189.81 20 185.33 20 179.81C20 146.72 20 57.43 20 24.34C20 18.82 24.48 14.34 30 14.34C63.09 14.34 152.38 14.34 185.47 14.34Z" id="akHwDt2g0"></path><path d="M397.74 14.34C403.26 14.34 407.74 18.82 407.74 24.34C407.74 57.43 407.74 146.72 407.74 179.81C407.74 185.33 403.26 189.81 397.74 189.81C364.64 189.81 275.36 189.81 242.26 189.81C236.74 189.81 232.26 185.33 232.26 179.81C232.26 146.72 232.26 57.43 232.26 24.34C232.26 18.82 236.74 14.34 242.26 14.34C275.36 14.34 364.64 14.34 397.74 14.34Z" id="d6xv6c1AcN"></path><path d="M608.3 14.34C613.82 14.34 618.3 18.82 618.3 24.34C618.3 57.43 618.3 146.72 618.3 179.81C618.3 185.33 613.82 189.81 608.3 189.81C575.21 189.81 485.92 189.81 452.83 189.81C447.31 189.81 442.83 185.33 442.83 179.81C442.83 146.72 442.83 57.43 442.83 24.34C442.83 18.82 447.31 14.34 452.83 14.34C485.92 14.34 575.21 14.34 608.3 14.34Z" id="a1XopnmRC"></path><path d="M186.32 229.06C191.84 229.06 196.32 233.53 196.32 239.06C196.32 272.15 196.32 361.43 196.32 394.53C196.32 400.05 191.84 404.53 186.32 404.53C153.23 404.53 63.94 404.53 30.85 404.53C25.33 404.53 20.85 400.05 20.85 394.53C20.85 361.43 20.85 272.15 20.85 239.06C20.85 233.53 25.33 229.06 30.85 229.06C63.94 229.06 153.23 229.06 186.32 229.06Z" id="a2dhgNk6rJ"></path><path d="M398.58 229.06C404.11 229.06 408.58 233.53 408.58 239.06C408.58 272.15 408.58 361.43 408.58 394.53C408.58 400.05 404.11 404.53 398.58 404.53C365.49 404.53 276.21 404.53 243.11 404.53C237.59 404.53 233.11 400.05 233.11 394.53C233.11 361.43 233.11 272.15 233.11 239.06C233.11 233.53 237.59 229.06 243.11 229.06C276.21 229.06 365.49 229.06 398.58 229.06Z" id="i6N76zAoLa"></path><path d="M609.15 229.06C614.67 229.06 619.15 233.53 619.15 239.06C619.15 272.15 619.15 361.43 619.15 394.53C619.15 400.05 614.67 404.53 609.15 404.53C576.06 404.53 486.77 404.53 453.68 404.53C448.16 404.53 443.68 400.05 443.68 394.53C443.68 361.43 443.68 272.15 443.68 239.06C443.68 233.53 448.16 229.06 453.68 229.06C486.77 229.06 576.06 229.06 609.15 229.06Z" id="b1srcf6owO"></path><path d="M185.47 444.72C190.99 444.72 195.47 449.19 195.47 454.72C195.47 487.81 195.47 577.09 195.47 610.19C195.47 615.71 190.99 620.19 185.47 620.19C152.38 620.19 63.09 620.19 30 620.19C24.48 620.19 20 615.71 20 610.19C20 577.09 20 487.81 20 454.72C20 449.19 24.48 444.72 30 444.72C63.09 444.72 152.38 444.72 185.47 444.72Z" id="b2apx9ubmI"></path><path d="M397.74 444.72C403.26 444.72 407.74 449.19 407.74 454.72C407.74 487.81 407.74 577.09 407.74 610.19C407.74 615.71 403.26 620.19 397.74 620.19C364.64 620.19 275.36 620.19 242.26 620.19C236.74 620.19 232.26 615.71 232.26 610.19C232.26 577.09 232.26 487.81 232.26 454.72C232.26 449.19 236.74 444.72 242.26 444.72C275.36 444.72 364.64 444.72 397.74 444.72Z" id="eBe2K6WLf"></path><path d="M608.3 444.72C613.82 444.72 618.3 449.19 618.3 454.72C618.3 487.81 618.3 577.09 618.3 610.19C618.3 615.71 613.82 620.19 608.3 620.19C575.21 620.19 485.92 620.19 452.83 620.19C447.31 620.19 442.83 615.71 442.83 610.19C442.83 577.09 442.83 487.81 442.83 454.72C442.83 449.19 447.31 444.72 452.83 444.72C485.92 444.72 575.21 444.72 608.3 444.72Z" id="d2ezxeeSX"></path></defs><g><g><g><g><use xlink:href="#akHwDt2g0" opacity="1" fill-opacity="0" stroke="#7b7b7b" stroke-width="8" stroke-opacity="1"></use></g></g><g><g><use xlink:href="#d6xv6c1AcN" opacity="1" fill-opacity="0" stroke="#7b7b7b" stroke-width="8" stroke-opacity="1"></use></g></g><g><g><use xlink:href="#a1XopnmRC" opacity="1" fill-opacity="0" stroke="#7b7b7b" stroke-width="8" stroke-opacity="1"></use></g></g><g><g><use xlink:href="#a2dhgNk6rJ" opacity="1" fill-opacity="0" stroke="#7b7b7b" stroke-width="8" stroke-opacity="1"></use></g></g><g><g><use xlink:href="#i6N76zAoLa" opacity="1" fill-opacity="0" stroke="#7b7b7b" stroke-width="8" stroke-opacity="1"></use></g></g><g><g><use xlink:href="#b1srcf6owO" opacity="1" fill-opacity="0" stroke="#7b7b7b" stroke-width="8" stroke-opacity="1"></use></g></g><g><g><use xlink:href="#b2apx9ubmI" opacity="1" fill-opacity="0" stroke="#7b7b7b" stroke-width="8" stroke-opacity="1"></use></g></g><g><g><use xlink:href="#eBe2K6WLf" opacity="1" fill-opacity="0" stroke="#7b7b7b" stroke-width="8" stroke-opacity="1"></use></g></g><g><g><use xlink:href="#d2ezxeeSX" opacity="1" fill-opacity="0" stroke="#7b7b7b" stroke-width="8" stroke-opacity="1"></use></g></g></g></g></svg>