<svg width="10" height="16" viewBox="0 0 10 16" fill="none" xmlns="http://www.w3.org/2000/svg">
<path d="M0.449219 13.8492V1.71589C0.449219 0.881719 1.13172 0.199219 1.96589 0.199219H8.03255C8.86672 0.199219 9.54922 0.881719 9.54922 1.71589V13.8492C9.54922 14.6834 8.86672 15.3659 8.03255 15.3659H1.96589C1.13172 15.3659 0.449219 14.6834 0.449219 13.8492Z" fill="#37474F"/>
<path d="M8.03177 1.33594H1.9651C1.7376 1.33594 1.58594 1.4876 1.58594 1.7151V12.7109C1.58594 12.9384 1.7376 13.0901 1.9651 13.0901H8.03177C8.25927 13.0901 8.41094 12.9384 8.41094 12.7109V1.7151C8.41094 1.4876 8.25927 1.33594 8.03177 1.33594Z" fill="#BBDEFB"/>
<path d="M3.86328 13.8477H6.13828V14.606H3.86328V13.8477Z" fill="white"/>
</svg>
