<svg width="51" height="42" viewBox="0 0 51 42" fill="none" xmlns="http://www.w3.org/2000/svg">
<rect width="4.35992" height="1.24569" rx="0.622846" transform="matrix(-1 0 0 1 10.5879 21.0256)" fill="#C4C4C4"/>
<rect width="10.5884" height="1.24569" rx="0.622846" transform="matrix(-1 0 0 1 10.5881 24.1401)" fill="#C4C4C4"/>
<rect width="6.22846" height="1.24569" rx="0.622846" transform="matrix(-1 0 0 1 10.5881 26.6316)" fill="#C4C4C4"/>
<rect width="3.73708" height="1.24569" rx="0.622846" transform="matrix(-1 0 0 1 8.09668 29.7456)" fill="#C4C4C4"/>
<path d="M16.7441 22.0811H14.4727C13.9564 22.0811 13.5693 22.5035 13.5693 23.0052C13.5693 23.5332 13.9823 23.9293 14.4727 23.9293H16.7441V22.0811Z" fill="#EA6C3A"/>
<path d="M37.3427 13.1569C37.4459 13.8962 37.6266 15.2956 37.7298 16.0349C37.7815 16.3253 38.0912 16.5101 38.3493 16.3781C39.0979 16.0084 39.5625 15.1899 39.4334 14.3186C39.3044 13.4473 38.6333 12.7873 37.8331 12.6288C37.5492 12.576 37.291 12.8401 37.3427 13.1569Z" fill="#EB1038"/>
<path d="M39.9753 34.9133C37.4806 34.9133 35.4582 32.8446 35.4582 30.2927C35.4582 27.7408 37.4806 25.6721 39.9753 25.6721C42.4701 25.6721 44.4924 27.7408 44.4924 30.2927C44.4924 32.8446 42.4701 34.9133 39.9753 34.9133Z" fill="#2F2F2F"/>
<path d="M39.9754 32.8537C38.5926 32.8537 37.4716 31.707 37.4716 30.2926C37.4716 28.8781 38.5926 27.7314 39.9754 27.7314C41.3582 27.7314 42.4791 28.8781 42.4791 30.2926C42.4791 31.707 41.3582 32.8537 39.9754 32.8537Z" fill="white"/>
<path d="M19.7644 34.9133C17.2697 34.9133 15.2473 32.8446 15.2473 30.2927C15.2473 27.7408 17.2697 25.6721 19.7644 25.6721C22.2592 25.6721 24.2816 27.7408 24.2816 30.2927C24.2816 32.8446 22.2592 34.9133 19.7644 34.9133Z" fill="#2F2F2F"/>
<path d="M19.7645 32.8537C18.3817 32.8537 17.2607 31.707 17.2607 30.2926C17.2607 28.8781 18.3817 27.7314 19.7645 27.7314C21.1473 27.7314 22.2682 28.8781 22.2682 30.2926C22.2682 31.707 21.1473 32.8537 19.7645 32.8537Z" fill="white"/>
<path d="M15.1698 14.3974C15.0149 14.4502 14.9375 14.6087 14.9891 14.7671L16.4604 20.1005C16.5894 20.6022 16.9766 21.0246 17.4412 21.2095L18.0865 21.4735V20.8134L17.9317 20.7606C17.4154 20.5758 17.0283 20.1533 16.8734 19.5989L15.5312 14.5823C15.4795 14.4502 15.3247 14.3446 15.1698 14.3974Z" fill="#787878"/>
<path d="M20.2807 20.9195H20.2291C19.687 20.9459 12.1499 21.6588 12.1499 30.055C12.1499 30.5567 12.5629 30.9791 13.0533 30.9791H31.6638C33.6255 30.9791 35.4582 30.1078 36.7488 28.6029L39.2267 25.6721C39.5623 25.276 39.6913 24.748 39.5881 24.2199C39.0719 21.8172 38.0652 19.5465 36.5939 17.5663L36.1293 16.9326H34.1934L36.0002 24.5632C35.8712 26.8602 33.9869 28.6557 31.7412 28.6821H28.5663C27.1209 28.6821 25.9593 27.4939 25.9593 26.0153C25.9593 25.0912 26.4239 24.2463 27.1983 23.7447L28.7212 22.7677C29.031 22.5565 29.2375 22.1869 29.2375 21.8172V20.8931H20.2807V20.9195Z" fill="#FFB118"/>
<path d="M20.5645 22.8728C20.5903 22.8728 20.5903 22.8728 20.5645 22.8728C20.771 22.8728 20.9258 23.0576 20.9258 23.2424C20.9258 23.4537 20.771 23.6121 20.5645 23.6121C17.3896 23.6121 14.8342 26.226 14.8342 29.4736C14.8342 29.6848 14.6793 29.8433 14.4728 29.8433C14.2663 29.8433 14.1115 29.6848 14.1115 29.4736C14.1115 25.83 17.0024 22.8728 20.5645 22.8728Z" fill="white"/>
<path d="M27.8949 21.9226L29.2371 21.2889C29.4436 21.1833 29.5727 20.9721 29.5727 20.7609C29.5727 19.5199 28.5918 18.4902 27.3529 18.4902H23.6101C22.3453 18.4902 21.0547 18.411 19.7899 18.2261C18.5509 18.1205 17.5185 19.1239 17.5185 20.3912V21.2889C17.5185 21.5794 17.7508 21.8434 18.0605 21.8434L26.0106 22.1866C26.6559 22.3187 27.3012 22.213 27.8949 21.9226Z" fill="#2F2F2F"/>
<path d="M16.6671 13.7113L16.6929 13.7641C17.1575 14.477 17.4156 15.2955 17.4156 16.1404V16.6685C17.4156 16.9061 17.2608 17.1438 17.0285 17.223L16.7187 17.3286C16.4348 17.4078 16.125 17.2494 16.0218 16.9589L15.2474 14.345C15.1442 14.0282 15.3249 13.7113 15.6346 13.6321L16.0734 13.5001C16.3057 13.4209 16.538 13.5001 16.6671 13.7113Z" fill="#2F2F2F"/>
<path d="M33.961 16.3519L33.6254 15.1901C33.5222 14.8733 33.6254 14.5036 33.8835 14.2924L34.9676 13.3419C35.4065 12.9723 35.9485 12.7346 36.5164 12.6818L38.1942 12.5498C38.3232 12.5498 38.4265 12.6026 38.4781 12.7082L38.6846 13.1835C39.0201 13.9492 39.175 14.7677 39.1234 15.5862L39.0976 16.035C39.0976 16.167 38.9943 16.2727 38.8653 16.2991L37.7553 16.4575C36.8777 16.5895 36.3357 17.5136 36.6712 18.3849L34.4514 17.9361L33.961 16.3519Z" fill="#FFB118"/>
<path d="M35.0708 13.3415C35.0708 13.3415 35.5354 13.1303 35.7935 13.7903C36.0517 14.424 35.5096 15.0049 35.5096 15.0049L33.5737 15.665C33.1865 15.797 32.7735 15.533 32.6961 15.1105C32.6445 14.8201 32.7993 14.5296 33.0575 14.3976L35.0708 13.3415Z" fill="#2F2F2F"/>
<path d="M44.2086 28.5764H43.047C40.3884 28.6028 37.8072 29.4741 35.6132 31.0583C35.2518 31.3224 34.7614 31.0319 34.7872 30.5567C34.813 29.9758 34.9162 29.1837 35.2002 28.3652C35.7164 26.781 36.8005 25.3816 38.5041 24.9064C42.0404 23.9295 43.9247 26.3586 44.6732 27.7051C44.8539 28.1276 44.5958 28.5764 44.2086 28.5764Z" fill="#FFB015"/>
<path d="M41.1111 26.1207C41.1111 26.1207 39.2527 25.487 37.7298 26.6752C36.6973 27.4673 36.3617 28.6026 36.3617 28.6026" stroke="white" stroke-width="0.3125" stroke-miterlimit="10" stroke-linecap="round"/>
<path d="M10.8983 8H17.5697C17.8646 8 18.1474 8.11127 18.3559 8.30933C18.5645 8.5074 18.6816 8.77603 18.6816 9.05613V16.449H9.78638V9.05613C9.78638 8.77603 9.90352 8.5074 10.112 8.30933C10.3206 8.11127 10.6034 8 10.8983 8Z" fill="url(#paint0_linear)"/>
<path d="M12.8673 13.7937C12.8828 13.7563 12.8999 13.7198 12.9187 13.6845L12.9435 13.6216C12.9464 13.6144 13.2166 12.9154 13.0655 12.056C12.607 12.0065 12.2558 11.6252 12.2693 11.1744C12.2835 10.6991 12.6975 10.3236 13.1921 10.3373C13.2619 10.3392 13.3313 10.3492 13.3994 10.367C13.5654 10.1024 13.8676 9.94128 14.1937 9.95031C14.4887 9.95846 14.7576 10.1047 14.9175 10.3383C15.0292 10.2965 15.1487 10.2763 15.2686 10.2796C15.7633 10.2932 16.1539 10.6911 16.1398 11.1663C16.1266 11.6047 15.7772 11.9576 15.3305 11.9988C15.2277 12.2908 15.1555 12.7551 15.327 13.393L15.3471 13.4676L12.8673 13.7937ZM15.4878 11.753C15.7083 11.6721 15.8817 11.4761 15.9178 11.2366C15.9218 11.2114 15.924 11.1858 15.9247 11.1603C15.9355 10.7989 15.6383 10.4964 15.2622 10.486C15.1707 10.4836 15.0794 10.4992 14.9941 10.5314C14.9945 10.5312 15.0054 10.6687 15.0052 10.6826C15.0046 10.7355 14.9988 10.7882 14.9874 10.8398C14.965 10.9417 14.9201 11.0359 14.8541 11.1152C14.9483 10.8805 14.8721 10.6236 14.722 10.4335C14.5898 10.2661 14.3988 10.1626 14.1874 10.1567C13.9465 10.15 13.7229 10.2657 13.5946 10.4567C13.7245 10.5454 13.8313 10.6608 13.8875 10.8123C13.9196 10.8989 13.934 10.992 13.9304 11.0845C13.9267 11.1817 13.898 11.2699 13.87 11.3617C13.8872 11.1793 13.8869 11.0024 13.7809 10.8447C13.7141 10.745 13.6155 10.6702 13.5073 10.6218C13.2544 10.5085 12.9588 10.5156 12.735 10.6912C12.5863 10.808 12.4899 10.9872 12.4842 11.1801C12.4734 11.5412 12.77 11.8434 13.1456 11.8544C13.1496 11.8542 13.1536 11.854 13.1575 11.8542L13.2448 11.8553L13.2616 11.9376C13.3319 12.2823 13.3376 12.6033 13.3158 12.8742C13.3326 12.8797 13.3495 12.8852 13.3667 12.8899C13.4117 12.9025 13.458 12.9137 13.5049 12.9228C13.5986 12.9414 13.6944 12.9538 13.7915 12.9611C13.8884 12.9667 13.9866 12.9697 14.0849 12.9646C14.1343 12.964 14.183 12.958 14.2325 12.9549C14.2817 12.9502 14.3307 12.9432 14.3802 12.9374C14.333 12.9513 14.2859 12.9666 14.2381 12.9794C14.2379 12.9796 14.2376 12.9796 14.2375 12.9797C14.1892 12.9913 14.1411 13.0055 14.0919 13.0147C13.9941 13.0367 13.8942 13.0506 13.7933 13.062C13.7445 13.0666 13.6953 13.0699 13.6458 13.0718C13.5931 13.0739 13.5402 13.0744 13.4871 13.073C13.4355 13.0719 13.3838 13.0685 13.3317 13.063C13.3199 13.0619 13.308 13.06 13.2962 13.0585C13.2854 13.1393 13.2726 13.2138 13.2591 13.2814C13.2326 13.4136 13.2032 13.5189 13.1809 13.5903C13.4333 13.653 14.1566 13.7682 15.0978 13.3609C15.0861 13.313 15.0759 13.2661 15.0668 13.2202C15.0599 13.185 15.0535 13.1505 15.048 13.1163C15.0235 13.1252 14.9992 13.1343 14.9748 13.1422C14.9658 13.1451 14.957 13.148 14.9481 13.1508C14.8856 13.1706 14.8228 13.1884 14.7595 13.2037C14.6151 13.2394 14.4693 13.265 14.323 13.2833C14.1765 13.2989 14.0301 13.3109 13.8836 13.3108C13.8107 13.3137 13.7374 13.3086 13.6648 13.3079C13.5919 13.305 13.5193 13.2985 13.447 13.2939C13.5196 13.2899 13.592 13.2876 13.6642 13.282C13.7363 13.2743 13.8084 13.2706 13.8797 13.2592C14.0229 13.2423 14.1641 13.2136 14.3032 13.1817C14.4419 13.1472 14.578 13.1061 14.7098 13.0563C14.7114 13.0557 14.713 13.0551 14.7147 13.0545C14.7789 13.0303 14.8418 13.0036 14.9032 12.975C14.9348 12.9605 14.9656 12.945 14.9958 12.9291C15.0044 12.9246 15.0133 12.9198 15.022 12.915C14.9834 12.5079 15.0412 12.1886 15.1182 11.959C15.1175 11.961 15.0236 11.9078 15.0148 11.9019C14.979 11.878 14.9454 11.8507 14.9151 11.8199C14.8501 11.754 14.8066 11.6773 14.7799 11.5882C14.7868 11.6113 14.8262 11.6421 14.8441 11.6586C14.8692 11.6817 14.8964 11.7023 14.9252 11.7202C14.9825 11.7557 15.0464 11.78 15.1126 11.791C15.234 11.8115 15.3721 11.7955 15.4878 11.753Z" fill="white"/>
<path d="M15.3422 13.4424C15.3422 13.4424 14.5445 14.0296 12.8665 13.7929L15.3422 13.4424Z" fill="white"/>
<path d="M18.752 16.4492H9.71553C9.56575 16.4492 9.42209 16.5063 9.31618 16.6079C9.21026 16.7094 9.15076 16.8472 9.15076 16.9908V17.6218C9.15074 17.8756 9.24358 18.1213 9.4131 18.3161C9.58262 18.511 9.81807 18.6426 10.0784 18.6881L15.8271 19.69C15.8604 19.696 15.8942 19.699 15.9281 19.6988H18.752C18.9017 19.6988 19.0454 19.6418 19.1513 19.5402C19.2572 19.4386 19.3167 19.3009 19.3167 19.1572V16.9908C19.3167 16.8472 19.2572 16.7094 19.1513 16.6079C19.0454 16.5063 18.9017 16.4492 18.752 16.4492ZM18.1872 18.6156H15.9789L10.2803 17.6218V17.5324H18.1872V18.6156Z" fill="#4A4A4A"/>
<ellipse rx="22.111" ry="0.311423" transform="matrix(-1 0 0 1 28.3392 34.4169)" fill="#C4C4C4"/>
<defs>
<linearGradient id="paint0_linear" x1="14.234" y1="8" x2="14.234" y2="16.449" gradientUnits="userSpaceOnUse">
<stop stop-color="#F05A28"/>
<stop offset="1" stop-color="#FF9900"/>
</linearGradient>
</defs>
</svg>
