<svg xmlns="http://www.w3.org/2000/svg" viewBox="0 0 19 17"><title>onmessage</title><g id="Layer_2" data-name="Layer 2"><g id="Layer_1-2" data-name="Layer 1"><path d="M18,7.2v8A1.79,1.79,0,0,1,16.2,17H1.8A1.79,1.79,0,0,1,0,15.22V4.56A1.79,1.79,0,0,1,1.8,2.78h9.09a5.06,5.06,0,0,0-.09.89A4.4,4.4,0,0,0,12.3,7L9,9,1.8,4.56V6.33L9,10.78l4.77-2.95a4.61,4.61,0,0,0,1.53.28A4.52,4.52,0,0,0,18,7.2ZM12.6,3.67A2.7,2.7,0,1,0,15.3,1,2.68,2.68,0,0,0,12.6,3.67Z" fill="#315fad"/><circle cx="15.5" cy="3.5" r="3" fill="#ce1212" stroke="#fff"/></g></g></svg>