<svg width="11" height="16" viewBox="0 0 11 16" fill="none" xmlns="http://www.w3.org/2000/svg">
<path d="M4.7293 12.1094C4.82999 12.265 5.00696 12.3688 5.20833 12.3688C5.40971 12.3688 5.58668 12.265 5.69042 12.1094L9.0528 6.91528C9.50437 6.21643 9.76677 5.44739 9.76677 4.55627C9.76372 1.98059 7.7408 0 5.20833 0C2.67587 0 0.652948 1.98059 0.652948 4.55627C0.652948 5.44739 0.915349 6.21643 1.36692 6.91528L4.7293 12.1094ZM5.20833 1.95312C6.64543 1.95312 7.81097 3.1189 7.81097 4.55627C7.81097 5.99365 6.64543 7.15942 5.20833 7.15942C3.77124 7.15942 2.60569 5.99365 2.60569 4.55627C2.60569 3.1189 3.77124 1.95312 5.20833 1.95312ZM8.5463 9.87244L5.20833 14.3219L1.87036 9.87244C0.729228 10.4706 0 11.3647 0 12.3688C0 14.1663 2.33109 15.625 5.20833 15.625C8.08558 15.625 10.4167 14.1663 10.4167 12.3688C10.4167 11.3647 9.68744 10.4706 8.5463 9.87244Z" fill="#E7343F"/>
<path d="M8.5463 9.87146L5.20833 14.3209L1.87036 9.87146C0.729228 10.4696 0 11.3638 0 12.3678C0 14.1653 2.33109 15.624 5.20833 15.624C8.08558 15.624 10.4167 14.1653 10.4167 12.3678C10.4167 11.3638 9.68744 10.4696 8.5463 9.87146Z" fill="#1CA406"/>
</svg>
