<svg width="11" height="14" viewBox="0 0 11 14" fill="none" xmlns="http://www.w3.org/2000/svg">
<path d="M5.30469 0C4.59375 0 3.91243 0.143555 3.26074 0.430664C2.60905 0.717773 2.04622 1.10059 1.57227 1.5791C1.09831 2.05762 0.717773 2.625 0.430664 3.28125C0.143555 3.9375 0 4.62109 0 5.33203C0 5.73307 0.0546875 6.15234 0.164062 6.58984C0.273438 7.02734 0.401042 7.43294 0.546875 7.80664C0.692708 8.18034 0.902344 8.59505 1.17578 9.05078C1.44922 9.50651 1.69303 9.8916 1.90723 10.2061C2.12142 10.5205 2.41081 10.9033 2.77539 11.3545C3.13997 11.8057 3.42253 12.1497 3.62305 12.3867C3.82357 12.6237 4.10612 12.9518 4.4707 13.3711C4.58008 13.4987 4.66211 13.5898 4.7168 13.6445C4.73503 13.6719 4.76693 13.7061 4.8125 13.7471C4.85807 13.7881 4.9401 13.8405 5.05859 13.9043C5.17708 13.9681 5.29102 14 5.40039 14H5.44141C5.69661 14 5.92448 13.8815 6.125 13.6445C9.04167 10.2904 10.5 7.51953 10.5 5.33203C10.5 3.8099 10.0352 2.54753 9.10547 1.54492C8.13932 0.514974 6.8724 0 5.30469 0ZM5.46875 13.0566C5.45964 13.0749 5.44141 13.0931 5.41406 13.1113L5.35938 13.0566L5.12695 12.7969C4.7806 12.3958 4.51172 12.0837 4.32031 11.8604C4.12891 11.637 3.86003 11.3112 3.51367 10.8828C3.16732 10.4544 2.89388 10.0921 2.69336 9.7959C2.49284 9.49967 2.26042 9.13965 1.99609 8.71582C1.73177 8.29199 1.52897 7.90918 1.3877 7.56738C1.24642 7.22559 1.12565 6.85645 1.02539 6.45996C0.92513 6.06348 0.875 5.6875 0.875 5.33203C0.875 4.53906 1.07552 3.7985 1.47656 3.11035C1.8776 2.4222 2.41764 1.8776 3.09668 1.47656C3.77572 1.07552 4.51172 0.875 5.30469 0.875C6.02474 0.875 6.66732 1.00033 7.23242 1.25098C7.79753 1.50163 8.25098 1.84115 8.59277 2.26953C8.93457 2.69792 9.19206 3.17188 9.36523 3.69141C9.53841 4.21094 9.625 4.75781 9.625 5.33203C9.625 7.30078 8.23958 9.87565 5.46875 13.0566ZM5.26367 2.63867C4.98112 2.63867 4.7054 2.68424 4.43652 2.77539C4.16764 2.86654 3.92611 2.99186 3.71191 3.15137C3.49772 3.31087 3.30859 3.5 3.14453 3.71875C2.98047 3.9375 2.85514 4.17904 2.76855 4.44336C2.68197 4.70768 2.63867 4.98112 2.63867 5.26367C2.63867 5.99284 2.89616 6.61263 3.41113 7.12305C3.92611 7.63346 4.5459 7.88867 5.27051 7.88867C5.99512 7.88867 6.61263 7.63346 7.12305 7.12305C7.63346 6.61263 7.88867 5.99284 7.88867 5.26367C7.88867 4.9082 7.82031 4.56869 7.68359 4.24512C7.54688 3.92155 7.36003 3.64355 7.12305 3.41113C6.88607 3.17871 6.60579 2.99186 6.28223 2.85059C5.95866 2.70931 5.61914 2.63867 5.26367 2.63867ZM5.26367 7.01367C4.7806 7.01367 4.36589 6.84049 4.01953 6.49414C3.67318 6.14779 3.5 5.73307 3.5 5.25C3.5 4.76693 3.6709 4.35449 4.0127 4.0127C4.35449 3.6709 4.76693 3.5 5.25 3.5C5.73307 3.5 6.14551 3.6709 6.4873 4.0127C6.8291 4.35449 7 4.76693 7 5.25C7 5.85156 6.75846 6.33008 6.27539 6.68555C5.97461 6.9043 5.63737 7.01367 5.26367 7.01367Z" fill="black"/>
</svg>
