<svg width="19" height="19" viewBox="0 0 19 19" fill="none" xmlns="http://www.w3.org/2000/svg">
<path d="M14.4707 0L17.2072 2.73161C18.1166 3.63944 18.1166 5.11133 17.2072 6.01916L14.4707 8.75077H0.952449C0.426431 8.75077 0 8.32509 0 7.79999V0.950777C0 0.425682 0.426431 0 0.952449 0H14.4707Z" fill="white"/>
<path d="M11.8134 1.7439H11.7098L11.6366 1.81712L2.0958 11.358C1.62692 11.8268 1.62692 12.587 2.0958 13.0559L6.93828 17.8984C7.40716 18.3673 8.16736 18.3673 8.63624 17.8984L18.1771 8.3576L18.2503 8.28437V8.18082V3.00312V2.89957L18.1771 2.82635L18.1725 2.82174L18.1679 2.81714L18.1633 2.81256L18.161 2.81028L18.1587 2.808L18.1496 2.79892L18.1474 2.79666L18.1451 2.7944L18.1406 2.7899L18.1361 2.78541L18.1339 2.78317L18.1317 2.78093L18.1272 2.77647L18.125 2.77425L18.1228 2.77203L18.1051 2.75439L18.0877 2.73698L18.0705 2.71978L18.062 2.71126L18.0599 2.70914L18.0577 2.70702L18.0556 2.7049L18.0535 2.70279L18.0514 2.70068L18.0493 2.69857L18.0472 2.69647L18.0451 2.69436L18.0409 2.69017L18.0388 2.68808L18.0367 2.68599L18.0037 2.65296L17.9874 2.63671L17.9794 2.62865L17.9714 2.62063L17.9634 2.61265L17.9614 2.61066L17.9594 2.60867L17.9574 2.60669L17.9554 2.60471L17.9475 2.5968L17.9397 2.58893L17.9085 2.55781L17.8477 2.49701L17.844 2.49327L17.8421 2.4914L17.8403 2.48953L17.8328 2.48207L17.8254 2.47464L17.8216 2.47093L17.8198 2.46907L17.8179 2.46722L17.8032 2.45245L17.7958 2.44509L17.7885 2.43774L17.7811 2.43041L17.7738 2.4231L17.7592 2.40852L17.7447 2.39398L17.7429 2.39217L17.7411 2.39035L17.7375 2.38673L17.7356 2.38492L17.7338 2.38311L17.7302 2.37948L17.7157 2.36502L17.7085 2.3578L17.7013 2.35058L17.6725 2.32173L17.658 2.30732L17.6508 2.3001L17.6436 2.29289L17.6292 2.27845L17.6147 2.26398L17.5564 2.20573L17.527 2.17625L17.5251 2.1744L17.5233 2.17254L17.5196 2.16883L17.5121 2.16139L17.5084 2.15767L17.5065 2.1558L17.5047 2.15393L17.5028 2.15207L17.5009 2.1502L17.499 2.14833L17.4972 2.14645L17.4821 2.13142L17.4746 2.12386L17.467 2.11628L17.4594 2.10867L17.4518 2.10103L17.4364 2.08566L17.4286 2.07793L17.4267 2.07599L17.4248 2.07405L17.4228 2.07211L17.4209 2.07016L17.4053 2.05453L17.4033 2.05257L17.4013 2.0506L17.3974 2.04666L17.3895 2.03876L17.3875 2.03678L17.3855 2.03479L17.3835 2.03281L17.3815 2.03082L17.3776 2.02683L17.3756 2.02483L17.3736 2.02284L17.3655 2.01482L17.3575 2.00675L17.3494 1.99865L17.3453 1.99458L17.3412 1.9905L17.3248 1.97408L17.3227 1.97202L17.3207 1.96995L17.3165 1.9658L17.3124 1.96165L17.3082 1.95748L17.2914 1.94068L17.2872 1.93645L17.2851 1.93433L17.2829 1.93221L17.2744 1.92369L17.2723 1.92155L17.2701 1.91941L17.2658 1.91511L17.2572 1.90649L17.2485 1.89781L17.2398 1.88907L17.2043 1.85357L17.1862 1.83547L17.1839 1.83319L17.1816 1.8309L17.177 1.82633L17.1748 1.82403L17.1725 1.82173L17.1701 1.81943L17.1678 1.81712L17.0946 1.7439H16.9911H11.8134Z" fill="white" stroke="#315FAD" stroke-width="0.5"/>
<path d="M15.6741 5.03998C16.0717 5.03998 16.3941 4.71762 16.3941 4.31998C16.3941 3.92233 16.0717 3.59998 15.6741 3.59998C15.2765 3.59998 14.9541 3.92233 14.9541 4.31998C14.9541 4.71762 15.2765 5.03998 15.6741 5.03998Z" fill="#4878C8"/>
<path d="M6.2034 6.59084C6.60104 6.59084 6.9234 6.25609 6.9234 5.84315C6.9234 5.43021 6.60104 5.09546 6.2034 5.09546C5.80575 5.09546 5.4834 5.43021 5.4834 5.84315C5.4834 6.25609 5.80575 6.59084 6.2034 6.59084Z" fill="white"/>
<path d="M3.10184 3.65545C3.49948 3.65545 3.82184 3.3331 3.82184 2.93545C3.82184 2.53781 3.49948 2.21545 3.10184 2.21545C2.70419 2.21545 2.38184 2.53781 2.38184 2.93545C2.38184 3.3331 2.70419 3.65545 3.10184 3.65545Z" fill="white"/>
<path d="M5.90609 1.98596C5.72958 1.88631 5.50569 1.94858 5.40604 2.12518L3.03869 6.32C2.93905 6.49659 3.00133 6.72052 3.17787 6.8202C3.23491 6.8524 3.29683 6.86771 3.35797 6.86771C3.48607 6.86771 3.61046 6.80052 3.67792 6.68098L6.04527 2.48616C6.14492 2.30956 6.08263 2.0856 5.90609 1.98596Z" fill="#4878C8"/>
<path d="M4.20953 2.93531C4.20953 2.32453 3.71264 1.82764 3.10185 1.82764C2.49107 1.82764 1.99414 2.32453 1.99414 2.93531C1.99414 3.54609 2.49103 4.04302 3.10181 4.04302C3.7126 4.04302 4.20953 3.54609 4.20953 2.93531ZM2.73252 2.93531C2.73252 2.73167 2.89817 2.56601 3.10181 2.56601C3.30546 2.56601 3.47111 2.73167 3.47111 2.93531C3.47111 3.13899 3.30546 3.30465 3.10181 3.30465C2.89817 3.30465 2.73252 3.13899 2.73252 2.93531Z" fill="#4878C8"/>
<path d="M6.97808 5.81532C6.97808 5.20453 6.48119 4.70764 5.87041 4.70764C5.25962 4.70764 4.7627 5.20453 4.7627 5.81532C4.7627 6.4261 5.25958 6.92303 5.87037 6.92303C6.48115 6.92303 6.97808 6.4261 6.97808 5.81532ZM5.50107 5.81532C5.50107 5.61167 5.66673 5.44602 5.87037 5.44602C6.07401 5.44602 6.23967 5.61167 6.23967 5.81532C6.23967 6.019 6.07401 6.18465 5.87037 6.18465C5.66673 6.18465 5.50107 6.019 5.50107 5.81532Z" fill="#4878C8"/>
<path d="M8.23032 7.80351L8.59508 7.44707L9.25135 8.11866L8.88658 8.4751L8.23032 7.80351ZM9.09643 8.68985L9.4612 8.33341L10.1175 9.00501L9.7527 9.36145L9.09643 8.68985ZM9.96255 9.5762L10.3273 9.21976L10.9836 9.89135L10.6188 10.2478L9.96255 9.5762ZM10.8287 10.4625L11.1934 10.1061L11.8497 10.7777L11.4849 11.1341L10.8287 10.4625ZM11.6948 11.3489L12.0595 10.9924L12.7158 11.664L12.351 12.0205L11.6948 11.3489Z" fill="#4878C8"/>
</svg>
