<svg width="18" height="18" viewBox="0 0 18 18" fill="none" xmlns="http://www.w3.org/2000/svg">
<path d="M14.4707 0L17.2072 2.73161C18.1166 3.63944 18.1166 5.11133 17.2072 6.01916L14.4707 8.75077H0.952449C0.426431 8.75077 0 8.32509 0 7.79999V0.950777C0 0.425682 0.426431 0 0.952449 0H14.4707Z" fill="#FFC56A"/>
<path d="M11.8129 1.9939H16.9906C17.3847 2.38802 17.6057 2.609 17.9998 3.00312V8.18082L8.45897 17.7216C8.08773 18.0929 7.48581 18.0929 7.11457 17.7216L2.27209 12.8791C1.90084 12.5079 1.90084 11.906 2.27209 11.5347L11.8129 1.9939Z" fill="#2660A4"/>
<path d="M15.6741 5.03998C16.0717 5.03998 16.3941 4.71762 16.3941 4.31998C16.3941 3.92233 16.0717 3.59998 15.6741 3.59998C15.2765 3.59998 14.9541 3.92233 14.9541 4.31998C14.9541 4.71762 15.2765 5.03998 15.6741 5.03998Z" fill="#FFC56A"/>
<path d="M6.20291 6.59084C6.60056 6.59084 6.92291 6.25609 6.92291 5.84315C6.92291 5.43021 6.60056 5.09546 6.20291 5.09546C5.80527 5.09546 5.48291 5.43021 5.48291 5.84315C5.48291 6.25609 5.80527 6.59084 6.20291 6.59084Z" fill="#FFC56A"/>
<path d="M3.10184 3.65545C3.49948 3.65545 3.82184 3.3331 3.82184 2.93545C3.82184 2.53781 3.49948 2.21545 3.10184 2.21545C2.70419 2.21545 2.38184 2.53781 2.38184 2.93545C2.38184 3.3331 2.70419 3.65545 3.10184 3.65545Z" fill="#FFC56A"/>
<path d="M5.9056 1.98596C5.72909 1.88631 5.50521 1.94858 5.40556 2.12518L3.03821 6.32C2.93856 6.49659 3.00084 6.72052 3.17738 6.8202C3.23442 6.8524 3.29634 6.86771 3.35749 6.86771C3.48558 6.86771 3.60997 6.80052 3.67743 6.68098L6.04478 2.48616C6.14443 2.30956 6.08214 2.0856 5.9056 1.98596Z" fill="black"/>
<path d="M4.20904 2.93531C4.20904 2.32453 3.71215 1.82764 3.10136 1.82764C2.49058 1.82764 1.99365 2.32453 1.99365 2.93531C1.99365 3.54609 2.49054 4.04302 3.10133 4.04302C3.71211 4.04302 4.20904 3.54609 4.20904 2.93531ZM2.73203 2.93531C2.73203 2.73167 2.89768 2.56601 3.10133 2.56601C3.30497 2.56601 3.47062 2.73167 3.47062 2.93531C3.47062 3.13899 3.30497 3.30465 3.10133 3.30465C2.89768 3.30465 2.73203 3.13899 2.73203 2.93531Z" fill="black"/>
<path d="M6.97857 5.81532C6.97857 5.20453 6.48168 4.70764 5.87089 4.70764C5.26011 4.70764 4.76318 5.20453 4.76318 5.81532C4.76318 6.4261 5.26007 6.92303 5.87086 6.92303C6.48164 6.92303 6.97857 6.4261 6.97857 5.81532ZM5.50156 5.81532C5.50156 5.61167 5.66721 5.44602 5.87086 5.44602C6.0745 5.44602 6.24016 5.61167 6.24016 5.81532C6.24016 6.019 6.0745 6.18465 5.87086 6.18465C5.66721 6.18465 5.50156 6.019 5.50156 5.81532Z" fill="black"/>
<path d="M8.22983 7.80351L8.59459 7.44707L9.25086 8.11866L8.8861 8.4751L8.22983 7.80351ZM9.09594 8.68985L9.46071 8.33341L10.117 9.00501L9.75221 9.36145L9.09594 8.68985ZM9.96206 9.5762L10.3268 9.21976L10.9831 9.89135L10.6183 10.2478L9.96206 9.5762ZM10.8282 10.4625L11.1929 10.1061L11.8492 10.7777L11.4844 11.1341L10.8282 10.4625ZM11.6943 11.3489L12.0591 10.9924L12.7153 11.664L12.3506 12.0205L11.6943 11.3489Z" fill="white"/>
</svg>
