<svg width="16" height="9" viewBox="0 0 16 9" fill="none" xmlns="http://www.w3.org/2000/svg">
<path d="M15.4208 4.222C15.3841 4.28142 15.3501 4.34367 15.3077 4.40025C15.0954 4.6832 14.7163 4.78506 14.3796 4.65491C14.0429 4.52475 13.8448 4.1937 13.8788 3.81738C13.9099 3.4835 14.1787 3.18924 14.5182 3.12416C14.8832 3.05625 15.2284 3.22602 15.3954 3.55707C15.4039 3.57405 15.4152 3.59102 15.4237 3.60517C15.4491 3.66742 15.4803 3.77211 15.4831 3.90227C15.4831 4.04657 15.4491 4.15692 15.4208 4.222Z" fill="#F46601"/>
<path d="M6.38578 4.55537C6.38295 4.58933 6.38295 4.62045 6.37446 4.6544C6.33768 4.79022 6.33768 4.79305 6.46501 4.84398C6.69702 4.93735 6.93187 5.02224 7.17521 5.08731C7.19784 5.09297 7.22048 5.10429 7.24311 5.11278C6.73098 5.07317 6.24431 4.94018 5.77178 4.74778C5.735 4.73363 5.72934 4.71099 5.73783 4.67704C5.75481 4.59781 5.77178 4.52142 5.78593 4.44219C5.79159 4.40541 5.80574 4.39409 5.84252 4.40824C6.02078 4.47049 6.20469 4.50727 6.38578 4.55537Z" fill="#FFE3B1"/>
<path d="M6.03125 1.5625C6.05106 1.5625 6.04823 1.57665 6.04823 1.59079C6.04257 1.57948 6.03691 1.57099 6.03125 1.5625Z" fill="#F46601"/>
<path d="M15.3075 5.1927C15.3075 5.13328 15.2934 5.11348 15.2311 5.11348C14.8576 5.11631 14.4841 5.11348 14.1106 5.11631C14.0569 5.11631 14.0371 5.10499 14.0258 5.0484C13.8956 4.40328 13.5589 3.89397 13.0043 3.54028C12.2771 3.07908 11.4877 2.99136 10.67 3.21772C9.81265 3.45257 9.22978 3.99866 8.96947 4.86165C8.92702 5.0003 8.90722 5.14177 8.88741 5.30871C8.85063 5.23232 8.8195 5.17856 8.7997 5.12197C8.54221 4.42308 8.48845 3.70157 8.5988 2.96873C8.60729 2.92063 8.62993 2.91214 8.66954 2.90648C8.79404 2.89233 8.91288 2.85272 9.02606 2.80179C9.65703 2.51318 9.92017 1.786 9.60327 1.19747C9.34579 0.71363 8.76291 0.447658 8.21399 0.560838C8.16589 0.572156 8.13194 0.572156 8.09515 0.524055C7.58868 -0.157851 6.55874 -0.177658 6.02397 0.484442C5.99002 0.526884 5.96172 0.529714 5.91362 0.515566C5.65048 0.433511 5.38451 0.436341 5.12137 0.515566C4.56396 0.685335 4.20461 1.20313 4.25554 1.76054C4.30648 2.29531 4.74788 2.74803 5.29397 2.8216C5.37036 2.83291 5.4128 2.85555 5.42695 2.93478C5.4411 3.01683 5.46939 3.09323 5.48637 3.17528C5.59672 3.71571 5.5373 4.24766 5.39866 4.77394C5.36187 4.90693 5.25718 4.98898 5.19776 5.10499C5.16947 5.08518 5.17513 5.06538 5.1723 5.05123C5.02516 4.33537 4.62904 3.79494 3.98957 3.44408C3.36709 3.10454 2.70216 3.03098 2.01176 3.16962C1.34401 3.30261 0.795085 3.63366 0.413105 4.20804C0.350856 4.30142 0.294266 4.39479 0.248995 4.49382C0.0962025 4.75696 0 5.1248 0 5.53224C0 5.93686 0.093373 6.30186 0.246165 6.565C0.520625 7.16485 1.00164 7.57513 1.66091 7.81564C1.81936 7.87506 2.00045 7.86091 2.13626 7.96277C2.26925 8.06463 2.3796 8.19479 2.50126 8.3108C3.03321 8.81161 3.65286 9.07476 4.39419 8.98138C4.79598 8.93045 5.13834 8.76068 5.4128 8.46359C5.44676 8.4268 5.45242 8.40134 5.41563 8.36173C5.24869 8.16932 5.08458 7.97409 4.9233 7.77885C4.88652 7.73358 4.86388 7.7449 4.82993 7.77885C4.68563 7.9175 4.51586 8.00804 4.31496 8.04765C4.05465 8.09575 3.7717 7.99106 3.63872 7.79017C4.24706 7.55532 4.71109 7.15919 4.99404 6.565C5.01385 6.58198 5.01668 6.60462 5.02234 6.62725C5.1723 7.09129 5.46373 7.43931 5.89099 7.6685C6.41727 7.94862 6.97751 8.00238 7.54906 7.86657C8.26209 7.6968 8.75443 7.2752 8.96098 6.55369C8.97795 6.4971 8.98927 6.43768 9.00625 6.36128C9.08264 6.55934 9.16753 6.73194 9.27788 6.89322C9.65986 7.44214 10.1918 7.76471 10.8398 7.90052C10.919 7.9175 10.9812 7.94862 11.0378 8.00804C11.1312 8.1099 11.2359 8.20328 11.3349 8.29665C11.8697 8.8003 12.4893 9.07476 13.242 8.98138C13.6466 8.93045 13.9918 8.76068 14.2663 8.45793C14.2974 8.42397 14.303 8.40134 14.2691 8.36173C14.1021 8.16649 13.9352 7.97126 13.7711 7.77319C13.7343 7.73075 13.7173 7.73924 13.6834 7.77319C13.5589 7.89203 13.4174 7.97692 13.2505 8.02502C12.9534 8.10707 12.6676 8.02219 12.4865 7.79017C13.3014 7.46761 13.8249 6.89039 14.0258 6.03023C14.0314 6.62159 14.0314 7.2073 14.0286 7.793C14.0286 7.85525 14.0456 7.8694 14.1078 7.8694C14.4813 7.86657 14.8548 7.86657 15.2283 7.8694C15.2877 7.8694 15.3019 7.85242 15.3019 7.79583C15.3047 6.93001 15.3047 6.06136 15.3075 5.1927ZM3.19732 6.43768C2.65689 6.81117 1.74862 6.59896 1.61847 5.73596C1.5647 5.38794 1.62412 5.05972 1.86746 4.79092C2.14475 4.4825 2.50126 4.40045 2.89456 4.50231C3.29069 4.60417 3.51705 4.88146 3.60759 5.27476C3.61608 5.30871 3.62174 5.3455 3.62457 5.37945C3.63023 5.43038 3.63023 5.48414 3.63306 5.54073C3.63023 5.90573 3.51139 6.21981 3.19732 6.43768ZM7.53775 6.28771C7.45852 6.57066 7.23216 6.7376 6.9577 6.7178C6.67192 6.69799 6.46254 6.49993 6.4201 6.21132C6.39463 6.04438 6.40595 5.88027 6.47669 5.72465C6.58138 5.49546 6.81057 5.37945 7.08786 5.41623C7.31705 5.44453 7.50096 5.63127 7.54906 5.87744C7.56038 5.93686 7.56887 5.99628 7.56604 6.04721C7.56604 6.13492 7.55755 6.21132 7.53775 6.28771ZM8.4545 2.63768C8.37527 2.63768 8.34132 2.65466 8.32717 2.73954C8.25078 3.14699 8.20833 3.55443 8.24512 3.96754C8.25078 4.02979 8.2338 4.05808 8.16872 4.07506C7.80938 4.1656 7.44437 4.1939 7.07371 4.17126C7.01429 4.16843 6.95487 4.17126 6.89545 4.17692C7.08786 4.242 7.28309 4.27878 7.48116 4.30142C7.73015 4.32971 7.97632 4.3382 8.22531 4.3099C8.26209 4.30708 8.27341 4.31556 8.27907 4.34952C8.31303 4.56739 8.3583 4.78526 8.42338 4.99464C8.43752 5.03708 8.41489 5.04557 8.38093 5.05123C8.0612 5.11914 7.74147 5.14177 7.41608 5.12197C7.35949 5.11914 7.30007 5.11065 7.24348 5.10782C6.73134 5.06821 6.24467 4.93522 5.77215 4.74282C5.73536 4.72867 5.72971 4.70603 5.73819 4.67208C5.75517 4.59285 5.77215 4.51646 5.7863 4.43723C5.79195 4.40045 5.8061 4.38913 5.84289 4.40328C6.01831 4.46836 6.20223 4.50514 6.38615 4.55324C6.62948 4.59002 6.86999 4.62964 7.11615 4.64378C7.26612 4.65227 7.41325 4.6551 7.56321 4.65227C7.70752 4.64944 7.85465 4.65793 8.01593 4.62398C7.74147 4.61832 7.48682 4.59285 7.23499 4.55041C6.96336 4.50514 6.69173 4.44855 6.43425 4.34952C6.23901 4.29576 6.0551 4.2137 5.87401 4.12599C5.8344 4.10618 5.83723 4.07789 5.83723 4.04393C5.85137 3.87133 5.8542 3.69591 5.84289 3.52331C5.82591 3.29129 5.7863 3.06493 5.71556 2.8414C5.70141 2.79613 5.70707 2.77349 5.75234 2.75369C5.82591 2.72256 5.88816 2.67163 5.95324 2.62353C6.03246 2.53582 6.11452 2.45093 6.14281 2.32644C6.01831 2.42264 5.89382 2.51601 5.73536 2.53865C5.11571 2.66314 4.5102 2.20477 4.55547 1.57662C4.58377 1.19464 4.90633 0.843786 5.31377 0.764561C5.42695 0.741925 5.5373 0.739095 5.65048 0.753243C5.65331 0.753243 5.65614 0.753243 5.65897 0.753243C5.85986 0.787197 5.85703 0.787197 5.8542 0.985261C5.85137 1.19747 5.89382 1.39554 6.03529 1.56248C6.03246 1.44647 6.00134 1.33046 6.01831 1.21162C6.123 0.490101 6.92375 0.0062589 7.61697 0.467465C7.63678 0.481612 7.65376 0.498589 7.67356 0.515566C7.68771 0.526884 7.70469 0.535372 7.71883 0.54669C7.86314 0.679676 7.86031 0.676847 7.71883 0.804173C7.42174 1.07014 7.31705 1.39837 7.41325 1.786C7.41891 1.81147 7.41891 1.84259 7.4472 1.85674C7.45286 1.74356 7.45003 1.63038 7.4755 1.5172C7.54906 1.18615 7.76976 0.993749 8.07818 0.891887C8.46865 0.761731 8.83082 0.804173 9.14489 1.08712C9.15621 1.09844 9.16753 1.11259 9.17602 1.12391C9.49009 1.41251 9.5099 1.94163 9.22129 2.28116C9.0204 2.5245 8.76291 2.63768 8.4545 2.63768ZM12.2686 6.23112C12.0027 6.56783 11.6462 6.67252 11.2387 6.58481C10.8313 6.4971 10.5879 6.22829 10.4889 5.82934C10.4267 5.57468 10.4436 5.3172 10.5427 5.07386C10.6983 4.69188 11.052 4.4627 11.4764 4.46553C12.0225 4.46836 12.4384 4.86165 12.4809 5.41057C12.5063 5.70767 12.4582 5.99062 12.2686 6.23112Z" fill="#F46601"/>
</svg>
