<svg width="12" height="16" viewBox="0 0 12 16" fill="none" xmlns="http://www.w3.org/2000/svg">
<path fill-rule="evenodd" clip-rule="evenodd" d="M10.675 0H1.324C0.592 0 0 0.605 0 1.353V14.647C0 15.395 0.593 16 1.324 16L6 11.987L10.674 16C11.406 16 12 15.395 12 14.647V1.353C12.0022 1.17705 11.9697 1.00239 11.9043 0.839051C11.8388 0.675711 11.7417 0.526909 11.6186 0.401189C11.4955 0.27547 11.3488 0.175311 11.1868 0.106463C11.0249 0.0376146 10.851 0.00143448 10.675 0V0ZM8.48 10L6.008 8.633L3.536 10L4.009 7.104L2.008 5.055L4.772 4.633L6.008 2L7.244 4.633L10.008 5.055L8.008 7.105L8.48 10Z" fill="#0F46A2"/>
</svg>
