<svg width="22" height="19" viewBox="0 0 22 19" fill="none" xmlns="http://www.w3.org/2000/svg">
<rect width="21.7143" height="19" rx="5" fill="#FFBA3E"/>
<path d="M8.0297 13.4586C8.6543 13.4586 9.16065 12.9522 9.16065 12.3276C9.16065 11.703 8.6543 11.1967 8.0297 11.1967C7.40509 11.1967 6.89874 11.703 6.89874 12.3276C6.89874 12.9522 7.40509 13.4586 8.0297 13.4586Z" stroke="black" stroke-width="0.7" stroke-linecap="round" stroke-linejoin="round"/>
<path d="M13.6847 13.4586C14.3093 13.4586 14.8156 12.9522 14.8156 12.3276C14.8156 11.703 14.3093 11.1967 13.6847 11.1967C13.0601 11.1967 12.5537 11.703 12.5537 12.3276C12.5537 12.9522 13.0601 13.4586 13.6847 13.4586Z" stroke="black" stroke-width="0.7" stroke-linecap="round" stroke-linejoin="round"/>
<path d="M6.89907 12.3273H5.76811V10.0654M5.20264 5.54163H11.4229V12.3273M9.16097 12.3273H12.5538M14.8157 12.3273H15.9467V8.93448M15.9467 8.93448H11.4229M15.9467 8.93448L14.2503 6.1071H11.4229" stroke="black" stroke-width="0.7" stroke-linecap="round" stroke-linejoin="round"/>
<path d="M5.76776 7.80359H8.02967" stroke="black" stroke-width="0.7" stroke-linecap="round" stroke-linejoin="round"/>
</svg>
