<svg xmlns="http://www.w3.org/2000/svg" viewBox="0 0 54.42 17.85"><title>OVO</title><g id="Layer_2" data-name="Layer 2"><g id="Layer_1-2" data-name="Layer 1"><path d="M18.45.49h7V3.3H23.73L27.81,13l4-9.69H30.06V.5h5.6V2.1L28.91,17.85A3.2,3.2,0,0,1,25.66,16L20.11,3.3H18.45V.49ZM8.82,0A8.88,8.88,0,1,1,0,8.88,8.85,8.85,0,0,1,8.82,0Zm0,2.9a5.82,5.82,0,0,1,5.56,6,5.81,5.81,0,0,1-5.56,6,5.81,5.81,0,0,1-5.56-6,5.82,5.82,0,0,1,5.56-6ZM45.61,0a8.88,8.88,0,1,1-8.82,8.88A8.85,8.85,0,0,1,45.61,0Zm0,2.9a5.82,5.82,0,0,1,5.56,6,5.81,5.81,0,0,1-5.56,6,5.81,5.81,0,0,1-5.56-6,5.82,5.82,0,0,1,5.56-6Z" fill="#4c3494" fill-rule="evenodd"/></g></g></svg>