<svg width="785" height="724" viewBox="0 0 785 724" fill="none" xmlns="http://www.w3.org/2000/svg">
<path d="M26.1519 709.859C11.2258 702.078 -0.534098 695.262 0.0187201 694.709C1.9251 692.801 73.3458 677.551 123.22 668.405C231.143 648.608 359.458 632.764 487.266 623.451C539.901 619.615 730.321 619.488 763.346 623.266L785 625.744L760.592 626.123C717.265 626.797 617.902 633.753 540.048 641.565C392.684 656.349 228.859 683.612 110.341 713.067C86.1343 719.082 63.3985 724 59.8102 724C56.2252 724 41.078 717.637 26.1519 709.859ZM232.179 561.439C229.964 555.317 239.228 552.578 243.269 550.838C261.411 543.054 274.18 530.368 278.451 515.878C280.495 508.945 286.723 469.754 292.289 428.789C297.854 387.824 302.856 356.14 303.402 354.279C303.807 352.904 304.903 348.016 310.776 347.49C325.766 347.346 336.896 347.537 352.258 347.537C360.744 346.722 359.076 356.012 358.409 361.966C357.742 369.483 355.722 383.999 353.363 401.704C350.492 423.304 346.2 455.586 343.825 473.442C338.487 513.575 335.529 525.932 326.302 546.604C315.319 571.201 298.534 585.493 268.105 595.662C261.961 597.589 244.337 603.587 242.421 598.256C238.444 585.497 235.62 574.407 232.179 561.439ZM581.613 547.982C561.337 539.792 562.291 508.157 583.563 495.179C597.025 486.966 615.938 488.36 625.658 498.086C649.603 522.05 614.39 561.214 581.613 547.982ZM428.345 529.084C368.728 518.895 369.127 447.768 382.482 407.122C399.207 360.076 439.961 346.407 473.459 345.214C501.726 344.245 540.916 349.505 550.753 355.59C553.473 357.269 552.193 373.576 544.605 434.039C539.334 476.02 533.572 512.12 531.796 514.259C522.358 525.64 459.116 534.702 428.345 529.084ZM480.354 472.794C486.753 448.968 489.454 427.458 494.03 402.324C493.461 393.661 478.849 393.601 475.13 393.581C455.775 393.581 444.344 404.453 438.283 428.625C429.974 461.778 438.651 480.247 462.54 480.247C470.091 479.546 477.972 479.966 480.354 472.794ZM44.6361 509.89C60.9325 470.055 126.386 327.415 142.096 297.876C145.065 290.51 152.885 289.059 158.239 288.542C173.634 287.838 186.942 288.026 200.46 288.123C214.391 288.247 214.596 293.139 216.388 303.498C218.579 313.821 245.758 476.191 251.909 515.167C252.693 521.638 254.278 523.652 245.858 523.666C234.192 523.699 206.113 525.218 196.584 524.497C193.538 524.102 191.555 522.104 191.083 519.854C190.212 515.673 189.23 508.499 188.56 501.016L186.824 481.602H151.853H116.878L109.232 500.272C106.512 506.91 103.54 513.461 101.325 517.809C99.7739 521.795 97.4621 523.632 94.0011 524.387C85.4408 524.313 55.0995 525.439 43.6913 524.434C38.0492 521.839 43.1519 513.518 44.6361 509.89ZM180.659 427.539C179.668 417.049 172.977 362.949 171.406 354.953C170.994 354.095 170.799 354.376 170.374 354.882C166.243 361.088 143.885 415.999 140.079 428.752C139.62 430.509 140.763 431.156 142.425 431.012C148.097 430.623 171.275 430.19 178.324 429.919C180.335 429.765 180.532 429.061 180.659 427.539ZM584.304 453.843C585.208 446.765 587.188 427.572 588.706 411.185C590.224 394.798 592.653 369.204 594.104 354.309C595.206 343.004 596.178 332.032 596.596 326.258C597.444 321.082 603.699 320.472 607.807 320.432C621.507 320.576 634.406 319.765 646.729 320.901C652.552 321.498 654.984 322.785 655.007 326.252C649.452 354.768 629.487 453.162 627.953 459.257C626.626 464.51 626.09 466.059 618.076 466.515C608.256 466.358 600.067 466.871 590.107 466.82C584.394 466.746 582.866 465.07 584.304 453.843ZM307.865 307.662C307.865 290.279 319.042 277.03 333.04 271.455C345.135 267.214 358.69 267.23 365.907 275.481C378.716 290.38 370.31 312.392 355.35 323.861C336.179 337.057 308.176 329.259 307.865 307.662ZM651.302 271.025C647.117 261.715 633.685 232.344 621.456 205.755C609.227 179.166 599.866 155.728 600.657 153.667C601.448 151.608 615.077 134.664 630.948 116.021L656.776 85.6671C658.465 83.6254 660.405 81.1211 662.747 81.0909C678.316 81.168 694.445 82.1 709.301 81.9525C720.364 81.8586 725.932 81.1412 717.724 89.4756C712.47 95.9862 702.111 107.904 690.267 120.983C673.147 139.881 659.142 155.849 659.142 156.469C659.142 157.086 671.977 185.308 687.667 219.185C699.997 245.801 710.179 269.607 713.609 279.551C715.077 282.927 713.79 285.817 710.654 286.605C706.503 287.57 699.028 287.952 686.176 287.952H666.925C662.224 288.445 658.763 287.621 656.954 283.594L651.302 271.025ZM75.1517 251.209C57.8267 242.569 49.6383 231.637 48.144 215.159C47.2495 205.282 63.3985 72.5185 70.5482 30.3033C72.2938 20.3899 73.051 19.8233 82.5494 19.8233H101.238C111.055 19.8233 119.99 19.659 125.612 19.9775C133.291 20.0915 131.888 24.9326 131.301 30.7324C129.981 43.6766 125.867 71.7206 120.704 107.831C111.541 171.898 109.209 194.504 111.4 197.99C113.966 202.06 120.479 202.731 163.643 203.378L202.253 203.958C211.446 203.445 213.349 205.705 212.441 213.965C210.19 227.644 208.957 238.539 206.716 250.793C205.178 258.44 200.246 256.439 192.564 256.908L147.427 257.535C89.5484 258.262 89.2402 258.232 75.1517 251.209ZM520.358 256.13C519.771 255.014 521.386 239.475 523.946 221.599C526.502 203.723 531.846 165.33 535.816 136.284C547.094 53.8214 550.796 28.9757 552.368 19.4713C554.026 8.37774 554.036 8.99125 564.898 8.99125H582.123C588.843 8.99125 594.09 8.90409 598.141 9.03483C613.61 9.53771 611.64 8.20341 607.736 32.174C606.262 41.2326 601.351 81.101 596.821 114.616C585.416 199.02 577.935 250.773 576.564 254.776C575.278 258.527 522.281 259.805 520.358 256.13ZM226.074 249.707C233.258 189.391 240.119 143.783 248.1 87.6552C248.696 80.9367 255.297 80.1589 263.009 80.1488C271.781 80.1421 280.696 80.0248 289.049 80.303C305.228 80.3567 309.483 82.5258 307.804 93.3578C300.638 146.05 291.779 193.076 282.475 246.649C280.736 255.721 278.615 255.453 269.951 255.453C259.867 255.486 241.969 255.825 232.825 255.57C227.475 254.625 226.259 254.018 226.074 249.707ZM340.27 114.68C344.709 91.3564 347.785 87.7155 354.231 83.488C362.188 78.2748 420.961 72.8403 441.251 75.4419C444.086 75.8475 446.783 76.3571 449.349 76.9706C508.799 91.0982 499.558 158.454 495.692 189.442C491.618 219.044 487.621 246.009 486.807 249.358C485.389 255.191 484.123 255.453 457.199 255.453C448.156 255.453 443.429 255.141 438.283 254.658C429.967 254.115 429.196 252.245 430.027 246.193C433.056 221.462 437.144 200.133 440.189 177.03C444.29 145.503 443.198 114.378 404.105 121.07C397.404 122.77 395.572 123.309 394.647 129.994C389.769 161.136 385.484 193.307 381.021 223.768C380.039 231.036 378.672 238.633 377.268 245.369C376.903 247.082 376.705 248.617 376.394 249.754C375.995 251.098 375.07 252.493 374.186 251.111C367.904 239.662 338.347 241.57 326.014 249.972C319.826 254.276 318.552 256.589 321.079 243.471C321.524 240.688 321.956 237.909 322.379 235.133C328.5 194.946 332.624 155.413 340.27 114.68ZM255.88 45.6546C249.276 23.1188 268.936 0.844589 290.952 0.0701529C320.787 -1.92461 329.022 39.1339 298.5 57.7572C280.823 65.8503 262.242 64.1338 255.88 45.6546Z" fill="#E9232A"/>
</svg>
