<svg xmlns="http://www.w3.org/2000/svg" viewBox="0 0 1980.57 538.46"><title>visamasterr</title><g id="Layer_2" data-name="Layer 2"><g id="Layer_12" data-name="Layer 12"><g id="g4158"><polygon id="polygon9" points="433.35 426.38 352.34 426.38 403.01 113.08 484.02 113.08 433.35 426.38" fill="#0458a0"/><path id="path11" d="M727,120.74a199.62,199.62,0,0,0-72.66-13.34c-80,0-136.33,42.66-136.68,103.65-.66,45,40.34,70,71,85,31.34,15.33,42,25.34,42,39-.32,21-25.33,30.66-48.65,30.66-32.35,0-49.68-5-76-16.66l-10.67-5L484,414.38c19,8.66,54,16.34,90.35,16.67,85,0,140.34-42,141-107,.32-35.67-21.33-63-68-85.33-28.33-14.33-45.69-24-45.69-38.67.34-13.33,14.68-27,46.66-27,26.34-.67,45.69,5.66,60.35,12l7.33,3.32,11-67.65Z" fill="#0458a0"/><path id="path13" d="M834.69,315.39c6.68-18,32.35-87.66,32.35-87.66-.34.67,6.66-18.33,10.66-30l5.66,27s15.34,75,18.67,90.66Zm100-202.31H872c-19.32,0-34,5.66-42.34,26L709.36,426.38h85l17-47h104c2.33,11,9.67,47,9.67,47h75l-65.36-313.3Z" fill="#0458a0"/><path id="path15" d="M284.68,113.08,205.34,326.72l-8.67-43.33C182,233.4,136,179.08,84.67,152.07l72.67,274H243l127.33-313Z" fill="#0458a0"/><path id="path17" d="M131.67,113.08H1.33L0,119.41c101.67,26,169,88.67,196.67,164l-28.33-144c-4.67-20-19-25.68-36.67-26.34Z" fill="#faa71b"/></g><g id="layer1"><g id="g13"><rect id="rect19" x="1427.16" y="57.58" width="235.57" height="423.29" fill="#f26122"/><path d="M1442.11,269.23c0-86,40.39-162.29,102.46-211.65A267.61,267.61,0,0,0,1378.55,0c-148.83,0-269.23,120.4-269.23,269.23s120.4,269.23,269.23,269.23a267.55,267.55,0,0,0,166-57.59A268.83,268.83,0,0,1,1442.11,269.23Z" fill="#ea1d25"/><path id="path22" d="M1980.57,269.23c0,148.82-120.41,269.23-269.23,269.23a267.55,267.55,0,0,1-166-57.59c62.82-49.36,102.45-125.64,102.45-211.64s-40.38-162.29-102.45-211.65A267.61,267.61,0,0,1,1711.34,0C1860.16,0,1980.57,121.15,1980.57,269.23Z" fill="#f69e1e"/></g></g></g></g></svg>