<svg width="2132" height="449" viewBox="0 0 2132 449" fill="none" xmlns="http://www.w3.org/2000/svg">
<path d="M232.575 0C361.021 0 465.146 100.486 465.146 224.446C465.146 348.405 361.021 448.892 232.575 448.892C104.128 448.892 0 348.405 0 224.446C0 100.486 104.128 0 232.575 0Z" fill="#00AED6"/>
<path fill-rule="evenodd" clip-rule="evenodd" d="M368.243 217.527C366.471 188.962 341.271 167.059 311.65 168.334H164.741C159.389 168.334 155.051 164.149 155.051 158.983C155.051 153.819 159.389 149.631 164.741 149.631H313.588C312.719 130.271 299.024 113.656 279.67 108.482C236.278 101.004 191.855 101.004 148.46 108.482C123.8 114.332 105.351 134.137 101.946 158.423C95.1637 202.446 95.1637 247.194 101.946 291.22C107.139 316.918 128.297 336.814 155.051 341.158C208.845 347.707 263.279 347.707 317.077 341.158C341.041 336.472 359.178 317.461 362.039 294.023C366.962 268.814 369.04 243.169 368.243 217.527ZM319.788 248.95V257.177C319.788 262.343 315.451 266.531 310.099 266.531C304.747 266.531 300.409 262.343 300.409 257.177V248.95C297.278 246.313 295.506 242.483 295.564 238.474C295.564 230.728 302.071 224.446 310.099 224.446C318.127 224.446 324.636 230.728 324.636 238.474C324.591 242.463 322.838 246.255 319.788 248.95V248.95Z" fill="white"/>
<path d="M1127.59 199.194C1127.91 159.841 1095.11 127.686 1054.33 127.377C1013.55 127.068 980.23 158.722 979.912 198.076C979.59 237.433 1012.39 269.587 1053.17 269.896C1053.56 269.9 1053.94 269.9 1054.33 269.896C1093.02 271.896 1126.07 243.25 1128.14 205.909C1128.27 203.675 1128.28 201.431 1128.17 199.194H1127.59V199.194ZM908.195 199.194C908.195 124.382 969.442 67.3335 1054.33 67.3335C1139.22 67.3335 1200.46 124.756 1200.46 199.194C1200.46 273.636 1139.8 331.244 1054.33 331.244C968.86 331.244 908.195 273.824 908.195 199.194Z" fill="black"/>
<path d="M791.91 212.85C791.91 243.711 759.349 268.959 718.067 268.959C680.154 272.66 646.315 245.997 642.484 209.407C642.094 205.704 642.029 201.974 642.289 198.261C642.289 157.486 673.296 129.432 720.974 129.432C759.739 129.432 791.91 155.054 791.91 184.045V212.85V212.85ZM794.817 67.1478V96.698C771.23 76.0278 739.986 65.4375 708.182 67.3331C632.987 68.0062 572.595 127.377 573.291 199.945C573.987 272.51 635.507 330.794 710.702 330.121C741.66 331.461 771.796 320.276 793.848 299.261V324.512C793.848 358.738 763.225 383.801 722.912 383.801C692.126 385.948 661.799 375.65 639.187 355.373L592.092 399.139C627.404 432.591 675.4 450.576 724.85 448.891C807.414 448.891 864.007 395.4 864.007 324.139V67.1478H794.817V67.1478Z" fill="black"/>
<path d="M1243.1 74.8152H1312.48V96.8868H1313.45C1336.2 76.8767 1366.24 66.3839 1396.99 67.7073C1472.5 70.4516 1531.42 131.757 1528.57 204.631C1525.88 273.658 1468.51 329.019 1396.99 331.617C1367.61 332.274 1338.94 322.939 1315.97 305.247V430.189H1243.68L1243.1 74.8152V74.8152ZM1385.75 129.432C1346.98 129.432 1315.39 155.431 1315.39 183.671V215.28C1315.39 245.392 1346.59 270.27 1386.13 270.27C1426.43 272.276 1460.79 242.372 1462.86 203.48C1464.94 164.591 1433.96 131.435 1393.66 129.432C1391.15 129.305 1388.64 129.305 1386.13 129.432H1385.75V129.432Z" fill="black"/>
<path d="M1667.35 175.067C1714.84 168.896 1728.98 162.351 1728.98 149.63C1728.98 133.171 1710.96 123.257 1683.05 123.257C1652.97 120.883 1625.57 140.016 1618.51 168.333L1550.29 154.68C1559.98 103.806 1614.25 67.522 1681.11 67.522C1756.7 67.522 1803.6 104.928 1803.6 165.531V324.324H1738.68V296.64H1737.7C1715.68 320.572 1683.38 333.282 1650.3 331.058C1593.12 331.058 1553.39 300.945 1553.39 256.243C1553.39 211.54 1585.95 185.915 1667.35 175.067ZM1734.8 201.441H1733.83C1727.43 210.419 1714.45 215.657 1678.59 221.64C1636.15 229.31 1620.45 237.351 1620.45 251.941C1620.45 266.531 1633.05 273.639 1660.38 273.639C1702.04 273.639 1734.22 254.932 1734.22 231.18L1734.8 201.441V201.441Z" fill="black"/>
<path d="M1934.42 310.297L1814.84 74.8154H1894.5L1972.99 237.911H1974.16L2051.68 74.8154H2131.73L1952.64 430.189H1872.99L1934.42 310.297Z" fill="black"/>
</svg>
