<svg width="2073" height="911" viewBox="0 0 2073 911" fill="none" xmlns="http://www.w3.org/2000/svg">
<path fill-rule="evenodd" clip-rule="evenodd" d="M100.259 145.971H768.485C812.934 145.971 849.31 182.339 849.31 226.778V694.284C849.31 738.723 812.934 775.091 768.485 775.091H80.825C36.3762 775.091 0 738.723 0 694.284V116.777C0 95.753 17.341 81.2058 38.1701 78.6151L654.373 0C675.402 0 692.544 17.1379 692.544 38.1617V103.525H61.6901C61.6901 130.926 69.8623 145.971 100.159 145.971H100.259ZM474.984 658.215C418.775 668.976 346.521 650.244 307.255 607.997C289.515 588.966 318.118 560.17 335.957 579.401C362.367 607.897 409.507 621.149 447.976 620.253C497.009 619.157 540.561 574.618 512.755 524.798C474.187 455.848 379.309 475.178 330.476 420.975C291.01 377.233 309.746 308.482 356.088 278.092C404.424 246.308 487.84 247.503 527.605 293.138C544.746 312.667 516.044 341.463 498.902 321.734C466.812 284.967 390.97 289.949 361.968 327.812C320.808 381.916 382.399 411.011 425.452 424.063C484.651 441.998 550.327 474.78 561.091 542.634C569.662 597.236 527.405 648.151 474.984 658.215Z" fill="#EE4E2C"/>
<path fill-rule="evenodd" clip-rule="evenodd" d="M474.991 658.213C418.782 668.974 346.528 650.242 307.261 607.995C289.522 588.964 318.124 560.168 335.964 579.399C362.374 607.895 409.513 621.147 447.983 620.251C497.016 619.155 540.568 574.616 512.762 524.796C474.293 455.846 379.316 475.176 330.482 421.072C291.017 377.331 309.753 308.58 356.095 278.09C404.431 246.306 487.847 247.501 527.612 293.136C544.753 312.665 516.051 341.461 498.909 321.732C466.819 284.966 390.977 289.947 362.075 327.81C320.915 381.914 382.505 411.009 425.559 424.062C484.757 441.997 550.434 474.778 561.197 542.632C569.768 597.234 527.512 648.15 475.09 658.213H474.991Z" fill="#FEFEFE"/>
<path d="M1625.87 117.274C1601.95 117.274 1580.52 127.437 1565.77 143.479V124.847C1565.77 108.008 1538.67 107.908 1538.67 124.847V345.448C1538.67 362.386 1565.77 362.386 1565.77 345.448V247.204C1580.52 263.245 1601.95 273.309 1625.87 273.309C1670.22 273.309 1706.3 238.336 1706.3 195.292C1706.3 152.248 1670.22 117.274 1625.87 117.274ZM1625.87 245.111C1597.47 245.111 1574.44 222.692 1574.44 195.292C1574.44 170.581 1593.08 149.956 1617.6 146.07C1617.7 146.07 1617.9 145.97 1618 145.97C1620.59 145.572 1623.18 145.372 1625.77 145.372C1646.7 145.372 1664.84 157.628 1672.81 175.165C1672.81 175.264 1672.91 175.364 1672.91 175.364C1675.7 181.442 1677.19 188.217 1677.19 195.192C1677.19 222.692 1654.17 245.011 1625.87 245.011V245.111ZM1426.15 273.309C1381.8 273.309 1345.72 238.336 1345.72 195.292C1345.72 152.248 1381.8 117.274 1426.15 117.274C1470.5 117.274 1506.58 152.248 1506.58 195.292C1506.58 238.336 1470.5 273.309 1426.15 273.309ZM1426.15 145.472C1397.85 145.472 1374.72 167.791 1374.72 195.292C1374.72 222.792 1397.75 245.111 1426.15 245.111C1454.45 245.111 1477.57 222.792 1477.57 195.292C1477.57 167.791 1454.55 145.472 1426.15 145.472ZM2072.75 193.797C2072.05 157.927 2053.12 125.544 2013.95 118.37C1980.16 112.193 1940.7 129.43 1926.25 160.119C1911.3 192.004 1917.58 235.745 1947.08 257.965C1978.97 281.977 2028.7 274.604 2061.49 256.769C2076.74 248.499 2063.08 225.881 2047.83 234.051C2027.1 245.31 2000 250.89 1976.78 243.318C1959.43 237.738 1949.67 223.191 1946.68 206.85H2059.29C2066.47 206.85 2072.95 200.772 2072.85 193.697L2072.75 193.797ZM1947.57 180.645C1947.77 179.648 1948.07 178.652 1948.37 177.755C1954.85 156.333 1976.97 143.978 1999.4 143.38C2025.21 142.682 2039.66 159.92 2044.15 180.645H1947.57ZM1892.46 193.996C1891.76 158.126 1872.83 125.744 1833.66 118.57C1799.88 112.392 1760.41 129.63 1745.96 160.318C1731.01 192.203 1737.29 235.944 1766.79 258.164C1798.68 282.177 1848.41 274.803 1881.2 256.968C1896.45 248.698 1882.79 226.08 1867.55 234.25C1846.82 245.51 1819.71 251.089 1796.49 243.517C1779.15 237.937 1769.38 223.39 1766.39 207.049H1879.01C1886.18 207.049 1892.66 200.971 1892.56 193.897L1892.46 193.996ZM1767.29 180.844C1767.49 179.848 1767.79 178.851 1768.09 177.954C1774.56 156.532 1796.69 144.177 1819.11 143.579C1844.92 142.882 1859.37 160.119 1863.86 180.844H1767.29ZM1313.83 168.688V259.858C1313.83 277.095 1286.72 277.095 1286.72 259.858V170.482C1285.83 152.845 1270.68 144.675 1270.18 144.476C1250.94 136.106 1215.86 139.992 1195.04 166.396V259.858C1195.04 277.095 1167.93 277.095 1167.93 259.858V25.7061C1167.93 8.56818 1195.04 8.56818 1195.04 25.7061V130.925C1228.22 108.805 1270.48 111.296 1290.31 124.847C1290.31 124.847 1314.13 137.9 1313.73 168.788L1313.83 168.688ZM1123.68 36.4671C1097.17 7.17324 1041.46 6.47576 1009.17 26.9018C978.273 46.431 965.715 90.6707 992.026 118.669C1024.61 153.443 1088 141.088 1113.81 185.228C1132.45 217.212 1103.25 245.809 1070.56 246.506C1044.95 247.004 1013.45 238.535 995.713 220.201C983.854 207.946 964.719 226.379 976.578 238.635C1002.79 265.736 1051.12 277.793 1088.6 270.818C1123.58 264.341 1151.88 231.66 1146.1 196.587C1138.93 153.045 1095.08 132.021 1055.51 120.463C1026.71 112.093 985.548 93.3609 1013.15 58.6866C1032.49 34.3747 1083.12 31.0866 1104.54 54.8007C1116 67.4548 1135.14 49.0216 1123.68 36.3675V36.4671Z" fill="#EE4E2C"/>
<path fill-rule="evenodd" clip-rule="evenodd" d="M1829.67 911H1743.66L1835.65 737.13L1684.56 451.764H1777.84L1882.29 648.949L1986.73 451.764H2072.74L1829.67 911ZM972.883 774.993H1044.94V643.27H1142.11C1242.86 643.27 1324.59 572.626 1324.59 485.442C1324.59 398.258 1242.86 327.614 1142.11 327.614H972.883C972.883 476.773 972.883 625.833 972.883 774.993ZM1044.94 571.231V399.653H1142.11C1196.82 399.653 1241.27 438.014 1241.27 485.442C1241.27 532.77 1196.92 571.231 1142.11 571.231H1044.94ZM1594.47 454.653H1657.75V772.203H1594.47V736.532C1566.26 760.545 1529.69 774.993 1489.82 774.993C1400.53 774.993 1328.17 702.655 1328.17 613.378C1328.17 524.102 1400.53 451.764 1489.82 451.764C1529.79 451.764 1566.26 466.212 1594.47 490.225V454.554V454.653ZM1489.82 519.917C1541.45 519.917 1583.31 561.765 1583.31 613.378C1583.31 664.991 1541.45 706.84 1489.82 706.84C1438.2 706.84 1396.34 664.991 1396.34 613.378C1396.34 561.765 1438.2 519.917 1489.82 519.917Z" fill="#EE4E2C"/>
</svg>
