<svg xmlns="http://www.w3.org/2000/svg" viewBox="0 0 106.31 33.32"><title>BCA</title><g id="Layer_2" data-name="Layer 2"><g id="Layer_1-2" data-name="Layer 1"><path id="path20" d="M15.67,25.29c0-1.33,0-4.88,0-5.31,0-5.29-3.82-9-6.24-8.72a4.09,4.09,0,0,0-3.84,2.8,3.52,3.52,0,0,0,2.25,4.85,15.16,15.16,0,0,1,5,1.85,5.7,5.7,0,0,1,2.37,4.53" fill="#0060af"/><path id="path22" d="M16.66,33.32A31.23,31.23,0,0,1,3.25,30.1l-.11-.05-.05-.12A31.75,31.75,0,0,1,0,16.43,30.85,30.85,0,0,1,3.05,3.14L3.1,3,3.22,3A30.91,30.91,0,0,1,16.54,0,31.75,31.75,0,0,1,30,3.22l.12.06.05.11a31.79,31.79,0,0,1,3.14,13.5,30.83,30.83,0,0,1-3.1,13.29l-.06.12-.11.05a31.48,31.48,0,0,1-13.38,3m-13-3.81a30.46,30.46,0,0,0,13,3.1,30.73,30.73,0,0,0,13-2.85,30.1,30.1,0,0,0,3-12.87,31.08,31.08,0,0,0-3-13.08A31,31,0,0,0,16.54.7,30.27,30.27,0,0,0,3.63,3.56,30.08,30.08,0,0,0,.71,16.43a31,31,0,0,0,3,13.08" fill="#0060af"/><path id="path24" d="M14.62,25.29a4.84,4.84,0,0,0-2.18-4,16.58,16.58,0,0,0-5-1.79,2.67,2.67,0,0,1-1.75-1.15,4,4,0,0,0-.64,2.91,3.32,3.32,0,0,0,3,2.62,13.16,13.16,0,0,0,3-.35,2.71,2.71,0,0,1,3.08,1.77" fill="#0060af"/><path id="path26" d="M16.54,3a5.07,5.07,0,0,0-5.37,5.2c0,2.77,2.24,4.25,3,5.31a10.2,10.2,0,0,1,1.92,6.38c.06,2.3.05,4.57.07,5.38h.63c0-.85,0-3.26,0-5.45a9.87,9.87,0,0,1,1.92-6.31c.8-1.06,3-2.54,3-5.31A5.07,5.07,0,0,0,16.4,3" fill="#0060af"/><path id="path28" d="M17.28,25.29c0-1.33,0-4.88,0-5.31,0-5.29,3.81-9,6.24-8.72a4.09,4.09,0,0,1,3.84,2.8,3.53,3.53,0,0,1-2.25,4.85,15.16,15.16,0,0,0-5,1.85,5.61,5.61,0,0,0-2.29,4.53" fill="#0060af"/><path id="path30" d="M18.32,25.29a4.84,4.84,0,0,1,2.18-4,16.55,16.55,0,0,1,5-1.79,2.65,2.65,0,0,0,1.74-1.15,4,4,0,0,1,.64,2.91,3.32,3.32,0,0,1-3,2.62,13.26,13.26,0,0,1-3-.35,2.71,2.71,0,0,0-3.08,1.77" fill="#0060af"/><path id="path32" d="M19.21,30.79l-.37-2.7.89-.13a.67.67,0,0,1,.59.14.78.78,0,0,1,.17.45.57.57,0,0,1-.29.63h0c.29,0,.46.21.52.56a1.84,1.84,0,0,1,0,.41c-.06.35-.27.47-.63.52Zm.57-.48a1,1,0,0,0,.3-.08c.13-.08.12-.26.1-.4s-.12-.4-.43-.35l-.2,0,.12.81Zm-.19-1.25c.12,0,.28,0,.35-.15a.4.4,0,0,0,0-.3c0-.19-.1-.32-.35-.27l-.24,0,.1.69" fill="#0060af"/><path id="path34" d="M23.07,29.17a.77.77,0,0,1,0,.15c.07.49,0,.9-.57,1-.82.16-1-.35-1.12-1.06l-.08-.38c-.11-.68-.16-1.2.64-1.36a.68.68,0,0,1,.87.55,1.17,1.17,0,0,1,.05.2l-.49.1c-.05-.17-.13-.47-.35-.44-.39,0-.26.53-.22.74l.14.74c.05.22.14.58.48.51s.15-.49.13-.67" fill="#0060af"/><path id="path36" d="M23.86,30l-.17-2.79.65-.2,1.38,2.43-.52.15L24.88,29l-.58.17.08.7Zm.39-1.3.42-.12-.55-1.13" fill="#0060af"/><path id="path38" d="M7.64,27.87c.2-.65.39-1.14,1.17-.92.42.11.68.3.67.79a2,2,0,0,1-.06.32l-.49-.13c.06-.27.1-.49-.23-.59s-.48.36-.53.56l-.2.73c-.06.22-.14.58.2.67s.45-.2.55-.6l-.34-.09.12-.42.8.26-.38,1.41-.37-.1.08-.3h0a.51.51,0,0,1-.56.23c-.8-.21-.72-.74-.52-1.44" fill="#0060af"/><path id="path40" d="M10.63,29.06l-.25,1.15-.54-.12.58-2.68.93.21c.54.12.7.36.63.86-.05.29-.19.59-.53.57h0c.29.1.31.24.26.5,0,.1-.17.76-.07.87v.08l-.56-.15a3.26,3.26,0,0,1,.09-.69c0-.16.08-.38-.08-.47a1.09,1.09,0,0,0-.32-.1Zm.09-.41.36.1c.23,0,.35-.09.4-.35s0-.35-.22-.4l-.39-.07" fill="#0060af"/><path id="path42" d="M14.12,28l.53.07L14.42,30c-.11.6-.34.86-1,.77s-.82-.38-.78-1l.23-1.88.54.07-.23,1.83c0,.2-.07.5.28.54s.39-.19.43-.45" fill="#0060af"/><path id="path44" d="M15.25,30.84l.16-2.69,1,0c.49,0,.62.42.61.8a.82.82,0,0,1-.29.63.91.91,0,0,1-.58.14l-.34,0-.06,1.13Zm.61-1.51.27,0c.23,0,.37-.08.39-.41s-.1-.37-.39-.38h-.22" fill="#0060af"/><path id="path46" d="M88.19,5.63l-4.11,7.46a9.07,9.07,0,0,0-5.86-2.19c-5.72,0-8,4.27-8,7.27,0,2.23,1.46,5.52,6.55,5.52a13,13,0,0,0,6-2.16L78.7,30.18a20.93,20.93,0,0,1-4.21.68c-9.11.27-12.79-5.33-12.79-11,0-7.56,6.73-16.76,17.87-16.76a7.09,7.09,0,0,1,2.23.5l.72-.92Z" fill="#0060af"/><path id="path48" d="M105.15,2.87,106.31,30H97.65V25.34H91.74L89.8,30H80.4l9.82-19.37H88l4.21-7.74Zm-7.56,8.3-3.34,7.88h3.44" fill="#0060af"/><path id="path50" d="M56.23,2.87C60.52,2.9,63,5.22,63,8.59c0,3.1-2.56,5.84-5.37,7.26,2.89,1.06,3.14,3.67,3.14,5.52,0,4.45-4.47,8.62-10.28,8.62H37.76l5-19.1h-2l4.15-8s7.91,0,11.4,0M52,13.87a2.63,2.63,0,0,0,2.85-1.95c.43-1.86-1-1.91-1.75-1.91H50.6l-.88,3.87Zm-3.56,4.79L47.3,23.11h3a3.16,3.16,0,0,0,3.15-2,1.89,1.89,0,0,0-1.89-2.42" fill="#0060af"/></g></g></svg>