<svg width="2432" height="709" viewBox="0 0 2432 709" fill="none" xmlns="http://www.w3.org/2000/svg">
<path fill-rule="evenodd" clip-rule="evenodd" d="M320.62 1.28655C203.376 12.3748 108.361 74.4535 50.6512 170.273C13.1552 232.539 -4.47187 306.306 0.96723 382.001C14.2679 567.203 173.42 723.998 377.132 707.855C559.905 693.369 710.716 528.949 695.265 326.72C689.606 252.68 663.871 191.658 622.624 136.562C603.943 111.608 600.26 111.208 580.759 90.7806C556.573 65.4463 505.425 36.3666 472.784 23.4927C429.015 6.23328 373.288 -3.69628 320.62 1.28655V1.28655Z" fill="#108DE8"/>
<path fill-rule="evenodd" clip-rule="evenodd" d="M146.536 251.19C142.091 264.028 144.74 406.731 144.74 433.202C144.737 461.832 139.085 470.78 183.887 486.102C302.501 526.667 419.955 389.124 537.902 457.17C543.367 460.325 550.027 466.795 551.59 456.343L551.636 272.769C551.642 253.025 553.412 246.841 540.311 237.716C434.766 164.194 320.489 289.957 213.394 275.852C173.758 270.632 157.348 250.406 146.536 251.19V251.19Z" fill="white"/>
<path fill-rule="evenodd" clip-rule="evenodd" d="M961.434 534.187C1007.66 537.486 1061.53 501.632 1080.51 481.093C1146.42 409.754 1148.02 306.53 1081.66 231.83C1056.94 204.014 999.091 173.27 962.192 177.577L828.929 177.678L828.896 533.738L961.434 534.187V534.187ZM903.76 457.036C913.572 458.739 953.888 458.106 964.963 457.091C1056 448.764 1088.16 324.294 1011.62 272.152C998.917 263.496 984.782 256.596 966.236 254.528C956.077 253.396 912.699 252.69 903.711 254.312L903.76 457.036V457.036Z" fill="#108DE8"/>
<path fill-rule="evenodd" clip-rule="evenodd" d="M2128.64 534.847L2204.44 534.818L2204.51 458.076L2354.92 458.096L2355.37 534.824L2431.13 534.838C2431.18 492.191 2431.15 449.886 2431.15 407.585C2431.15 369.482 2434.35 321.784 2424.96 287.216C2409.06 228.721 2353.42 176.835 2280.21 176.546C2206.21 176.254 2152.49 227.993 2135.35 285.643C2125.2 319.765 2128.58 368.681 2128.58 406.239C2128.58 449.043 2128.15 492.073 2128.64 534.847V534.847ZM2204.5 380.862L2355.3 380.928C2355.66 348.008 2359.2 316.016 2344.43 290.797C2333.86 272.753 2311.56 253.875 2280.25 253.744C2248.3 253.609 2227 271.739 2215.6 290.429C2200.67 314.943 2204.04 348.694 2204.5 380.862Z" fill="#108DE8"/>
<path fill-rule="evenodd" clip-rule="evenodd" d="M1261.61 534.768L1337.15 534.827C1337.2 518.815 1335.13 469.709 1337.89 458.073L1487.73 458.092L1488.25 534.781L1563.9 534.847C1563.51 492.326 1563.87 449.876 1563.87 407.584C1563.87 371.31 1567.22 319.334 1557.72 287.169C1514.43 140.701 1312.9 139.66 1268.17 285.705C1258.04 318.783 1261.5 369.399 1261.5 406.239C1261.5 448.744 1260.53 492.401 1261.61 534.768V534.768ZM1337.2 380.855L1488.19 380.937C1488.5 348.496 1492.04 315.901 1477.24 290.734C1450.13 244.661 1381.22 238.033 1348.43 290.508C1333.44 314.496 1336.71 349.271 1337.2 380.855V380.855Z" fill="#108DE8"/>
<path fill-rule="evenodd" clip-rule="evenodd" d="M1696.87 316.65L1695.84 369.836C1695.84 414.435 1693.62 497.627 1695.99 533.803L1770.07 533.846C1771.8 508.485 1767.4 327.505 1772.09 321.741C1772.11 286.575 1808.77 253.878 1845.86 253.737C1868.64 253.652 1885.25 262.918 1897.34 273.925C1906.78 282.521 1921.22 302.092 1920.94 321.925C1924.41 323.878 1921.67 512.651 1922.76 533.79L1996.92 533.846L1996.33 317.733C1998.18 300.802 1987.99 274.627 1981.45 261.339C1926.55 149.751 1768.98 148.274 1712.52 259.419C1705.9 272.451 1695.3 299.331 1696.87 316.65V316.65Z" fill="#108DE8"/>
</svg>
